<?xml version="1.0" encoding="UTF-8"?>
<!DOCTYPE svg PUBLIC '-//W3C//DTD SVG 1.0//EN'
    'http://www.w3.org/TR/2001/REC-SVG-20010904/DTD/svg10.dtd' >

<svg style="stroke-dasharray:none; shape-rendering:auto; font-family:'Dialog'; text-rendering:auto; fill-opacity:1; color-interpolation:auto; color-rendering:auto; font-size:12px; fill:black; stroke:black; image-rendering:auto; stroke-miterlimit:10; stroke-linecap:square; stroke-linejoin:miter; font-style:normal; stroke-width:1; stroke-dashoffset:0; font-weight:normal; stroke-opacity:1;"
     xmlns="http://www.w3.org/2000/svg" contentScriptType="text/ecmascript"
     preserveAspectRatio="xMidYMid meet"
     xmlns:xlink="http://www.w3.org/1999/xlink" zoomAndPan="magnify"
     version="1.0" contentStyleType="text/css">
    <!--Generated by the Batik Graphics2D SVG Generator-->
    <defs id="genericDefs"/>
    <g>
        <defs id="defs1">
            <clipPath clipPathUnits="userSpaceOnUse" id="clipPath1">
                <path d="M0 0 L982 0 L982 466 L0 466 L0 0 Z"/>
            </clipPath>
            <clipPath clipPathUnits="userSpaceOnUse" id="clipPath2">
                <path d="M-485.9791 -16.3746 L-485.9791 407.6082 L429.0165 407.6082 L429.0165 -16.3746 Z"/>
            </clipPath>
            <clipPath clipPathUnits="userSpaceOnUse" id="clipPath3">
                <path d="M-502.7198 -34.2017 L-502.7198 389.7811 L412.2758 389.7811 L412.2758 -34.2017 Z"/>
            </clipPath>
            <clipPath clipPathUnits="userSpaceOnUse" id="clipPath4">
                <path d="M-435.7571 -5.2747 L-435.7571 418.7081 L479.2385 418.7081 L479.2385 -5.2747 Z"/>
            </clipPath>
            <clipPath clipPathUnits="userSpaceOnUse" id="clipPath5">
                <path d="M-452.4978 -1.5 L-452.4978 422.4828 L462.4978 422.4828 L462.4978 -1.5 Z"/>
            </clipPath>
            <clipPath clipPathUnits="userSpaceOnUse" id="clipPath6">
                <path d="M-469.2385 -5.2747 L-469.2385 418.7081 L445.7571 418.7081 L445.7571 -5.2747 Z"/>
            </clipPath>
            <clipPath clipPathUnits="userSpaceOnUse" id="clipPath7">
                <path d="M-536.2011 -86.2254 L-536.2011 337.7575 L378.7945 337.7575 L378.7945 -86.2254 Z"/>
            </clipPath>
            <clipPath clipPathUnits="userSpaceOnUse" id="clipPath8">
                <path d="M-519.4604 -57.859 L-519.4604 366.1238 L395.5352 366.1238 L395.5352 -57.859 Z"/>
            </clipPath>
            <clipPath clipPathUnits="userSpaceOnUse" id="clipPath9">
                <path d="M-552.9418 -118.0301 L-552.9418 305.9528 L362.0538 305.9528 L362.0538 -118.0301 Z"/>
            </clipPath>
            <clipPath clipPathUnits="userSpaceOnUse" id="clipPath10">
                <path d="M-569.6824 -151.9277 L-569.6824 272.0551 L345.3132 272.0551 L345.3132 -151.9277 Z"/>
            </clipPath>
            <clipPath clipPathUnits="userSpaceOnUse" id="clipPath11">
                <path d="M-586.423 -186.5728 L-586.423 237.4101 L328.5726 237.4101 L328.5726 -186.5728 Z"/>
            </clipPath>
            <clipPath clipPathUnits="userSpaceOnUse" id="clipPath12">
                <path d="M-603.1638 -220.6946 L-603.1638 203.2882 L311.8318 203.2882 L311.8318 -220.6946 Z"/>
            </clipPath>
            <clipPath clipPathUnits="userSpaceOnUse" id="clipPath13">
                <path d="M-670.1263 -333.2257 L-670.1263 90.7571 L244.8693 90.7571 L244.8693 -333.2257 Z"/>
            </clipPath>
            <clipPath clipPathUnits="userSpaceOnUse" id="clipPath14">
                <path d="M-854.2736 -414.0717 L-854.2736 9.9111 L60.722 9.9111 L60.722 -414.0717 Z"/>
            </clipPath>
            <clipPath clipPathUnits="userSpaceOnUse" id="clipPath15">
                <path d="M-871.0143 -414.3333 L-871.0143 9.6495 L43.9813 9.6495 L43.9813 -414.3333 Z"/>
            </clipPath>
            <clipPath clipPathUnits="userSpaceOnUse" id="clipPath16">
                <path d="M-887.7549 -414.4454 L-887.7549 9.5374 L27.2407 9.5374 L27.2407 -414.4454 Z"/>
            </clipPath>
            <clipPath clipPathUnits="userSpaceOnUse" id="clipPath17">
                <path d="M-904.4956 -414.4828 L-904.4956 9.5 L10.5 9.5 L10.5 -414.4828 Z"/>
            </clipPath>
            <clipPath clipPathUnits="userSpaceOnUse" id="clipPath18">
                <path d="M-804.0516 -411.037 L-804.0516 12.9458 L110.944 12.9458 L110.944 -411.037 Z"/>
            </clipPath>
            <clipPath clipPathUnits="userSpaceOnUse" id="clipPath19">
                <path d="M-820.7923 -412.6067 L-820.7923 11.3761 L94.2033 11.3761 L94.2033 -412.6067 Z"/>
            </clipPath>
            <clipPath clipPathUnits="userSpaceOnUse" id="clipPath20">
                <path d="M-837.533 -413.5485 L-837.533 10.4343 L77.4626 10.4343 L77.4626 -413.5485 Z"/>
            </clipPath>
            <clipPath clipPathUnits="userSpaceOnUse" id="clipPath21">
                <path d="M-737.089 -392.0887 L-737.089 31.8941 L177.9066 31.8941 L177.9066 -392.0887 Z"/>
            </clipPath>
            <clipPath clipPathUnits="userSpaceOnUse" id="clipPath22">
                <path d="M-686.8671 -352.9588 L-686.8671 71.024 L228.1285 71.024 L228.1285 -352.9588 Z"/>
            </clipPath>
            <clipPath clipPathUnits="userSpaceOnUse" id="clipPath23">
                <path d="M-720.3483 -382.11 L-720.3483 41.8728 L194.6473 41.8728 L194.6473 -382.11 Z"/>
            </clipPath>
            <clipPath clipPathUnits="userSpaceOnUse" id="clipPath24">
                <path d="M-703.6077 -369.1789 L-703.6077 54.804 L211.3879 54.804 L211.3879 -369.1789 Z"/>
            </clipPath>
            <clipPath clipPathUnits="userSpaceOnUse" id="clipPath25">
                <path d="M-753.8297 -399.526 L-753.8297 24.4568 L161.166 24.4568 L161.166 -399.526 Z"/>
            </clipPath>
            <clipPath clipPathUnits="userSpaceOnUse" id="clipPath26">
                <path d="M-770.5704 -404.8704 L-770.5704 19.1124 L144.4252 19.1124 L144.4252 -404.8704 Z"/>
            </clipPath>
            <clipPath clipPathUnits="userSpaceOnUse" id="clipPath27">
                <path d="M-787.311 -408.5703 L-787.311 15.4125 L127.6846 15.4125 L127.6846 -408.5703 Z"/>
            </clipPath>
            <clipPath clipPathUnits="userSpaceOnUse" id="clipPath28">
                <path d="M-619.9044 -253.1721 L-619.9044 170.8108 L295.0912 170.8108 L295.0912 -253.1721 Z"/>
            </clipPath>
            <clipPath clipPathUnits="userSpaceOnUse" id="clipPath29">
                <path d="M-653.3857 -309.9048 L-653.3857 114.0781 L261.6099 114.0781 L261.6099 -309.9048 Z"/>
            </clipPath>
            <clipPath clipPathUnits="userSpaceOnUse" id="clipPath30">
                <path d="M-636.6451 -283.1081 L-636.6451 140.8747 L278.3505 140.8747 L278.3505 -283.1081 Z"/>
            </clipPath>
            <clipPath clipPathUnits="userSpaceOnUse" id="clipPath31">
                <path d="M-402.2758 -34.2017 L-402.2758 389.7811 L512.7198 389.7811 L512.7198 -34.2017 Z"/>
            </clipPath>
            <clipPath clipPathUnits="userSpaceOnUse" id="clipPath32">
                <path d="M-368.7945 -86.2254 L-368.7945 337.7575 L546.2011 337.7575 L546.2011 -86.2254 Z"/>
            </clipPath>
            <clipPath clipPathUnits="userSpaceOnUse" id="clipPath33">
                <path d="M-385.5352 -57.859 L-385.5352 366.1238 L529.4604 366.1238 L529.4604 -57.859 Z"/>
            </clipPath>
            <clipPath clipPathUnits="userSpaceOnUse" id="clipPath34">
                <path d="M-352.0539 -118.0301 L-352.0539 305.9528 L562.9418 305.9528 L562.9418 -118.0301 Z"/>
            </clipPath>
            <clipPath clipPathUnits="userSpaceOnUse" id="clipPath35">
                <path d="M-335.3132 -151.9277 L-335.3132 272.0551 L579.6824 272.0551 L579.6824 -151.9277 Z"/>
            </clipPath>
            <clipPath clipPathUnits="userSpaceOnUse" id="clipPath36">
                <path d="M-318.5725 -186.5728 L-318.5725 237.4101 L596.4231 237.4101 L596.4231 -186.5728 Z"/>
            </clipPath>
            <clipPath clipPathUnits="userSpaceOnUse" id="clipPath37">
                <path d="M-301.8319 -220.6946 L-301.8319 203.2882 L613.1637 203.2882 L613.1637 -220.6946 Z"/>
            </clipPath>
            <clipPath clipPathUnits="userSpaceOnUse" id="clipPath38">
                <path d="M-285.0912 -253.1721 L-285.0912 170.8108 L629.9044 170.8108 L629.9044 -253.1721 Z"/>
            </clipPath>
            <clipPath clipPathUnits="userSpaceOnUse" id="clipPath39">
                <path d="M-251.6099 -309.9048 L-251.6099 114.0781 L663.3857 114.0781 L663.3857 -309.9048 Z"/>
            </clipPath>
            <clipPath clipPathUnits="userSpaceOnUse" id="clipPath40">
                <path d="M-234.8692 -333.2257 L-234.8692 90.7571 L680.1263 90.7571 L680.1263 -333.2257 Z"/>
            </clipPath>
            <clipPath clipPathUnits="userSpaceOnUse" id="clipPath41">
                <path d="M-268.3506 -283.1081 L-268.3506 140.8747 L646.645 140.8747 L646.645 -283.1081 Z"/>
            </clipPath>
            <clipPath clipPathUnits="userSpaceOnUse" id="clipPath42">
                <path d="M-218.1286 -352.9588 L-218.1286 71.024 L696.8671 71.024 L696.8671 -352.9588 Z"/>
            </clipPath>
            <clipPath clipPathUnits="userSpaceOnUse" id="clipPath43">
                <path d="M-184.6472 -382.11 L-184.6472 41.8728 L730.3484 41.8728 L730.3484 -382.11 Z"/>
            </clipPath>
            <clipPath clipPathUnits="userSpaceOnUse" id="clipPath44">
                <path d="M-201.3879 -369.1789 L-201.3879 54.804 L713.6077 54.804 L713.6077 -369.1789 Z"/>
            </clipPath>
            <clipPath clipPathUnits="userSpaceOnUse" id="clipPath45">
                <path d="M-167.9066 -392.0887 L-167.9066 31.8941 L747.089 31.8941 L747.089 -392.0887 Z"/>
            </clipPath>
            <clipPath clipPathUnits="userSpaceOnUse" id="clipPath46">
                <path d="M-117.6846 -408.5703 L-117.6846 15.4125 L797.311 15.4125 L797.311 -408.5703 Z"/>
            </clipPath>
            <clipPath clipPathUnits="userSpaceOnUse" id="clipPath47">
                <path d="M-100.944 -411.037 L-100.944 12.9458 L814.0516 12.9458 L814.0516 -411.037 Z"/>
            </clipPath>
            <clipPath clipPathUnits="userSpaceOnUse" id="clipPath48">
                <path d="M-67.4626 -413.5485 L-67.4626 10.4343 L847.533 10.4343 L847.533 -413.5485 Z"/>
            </clipPath>
            <clipPath clipPathUnits="userSpaceOnUse" id="clipPath49">
                <path d="M-84.2033 -412.6067 L-84.2033 11.3761 L830.7923 11.3761 L830.7923 -412.6067 Z"/>
            </clipPath>
            <clipPath clipPathUnits="userSpaceOnUse" id="clipPath50">
                <path d="M-0.5 -414.4828 L-0.5 9.5 L914.4956 9.5 L914.4956 -414.4828 Z"/>
            </clipPath>
            <clipPath clipPathUnits="userSpaceOnUse" id="clipPath51">
                <path d="M-17.2407 -414.4454 L-17.2407 9.5374 L897.7549 9.5374 L897.7549 -414.4454 Z"/>
            </clipPath>
            <clipPath clipPathUnits="userSpaceOnUse" id="clipPath52">
                <path d="M-33.9813 -414.3333 L-33.9813 9.6495 L881.0143 9.6495 L881.0143 -414.3333 Z"/>
            </clipPath>
            <clipPath clipPathUnits="userSpaceOnUse" id="clipPath53">
                <path d="M-50.722 -414.0717 L-50.722 9.9111 L864.2736 9.9111 L864.2736 -414.0717 Z"/>
            </clipPath>
            <clipPath clipPathUnits="userSpaceOnUse" id="clipPath54">
                <path d="M-134.4253 -404.8704 L-134.4253 19.1124 L780.5703 19.1124 L780.5703 -404.8704 Z"/>
            </clipPath>
            <clipPath clipPathUnits="userSpaceOnUse" id="clipPath55">
                <path d="M-151.1659 -399.526 L-151.1659 24.4568 L763.8297 24.4568 L763.8297 -399.526 Z"/>
            </clipPath>
            <clipPath clipPathUnits="userSpaceOnUse" id="clipPath56">
                <path d="M-419.0165 -16.3746 L-419.0165 407.6082 L495.9791 407.6082 L495.9791 -16.3746 Z"/>
            </clipPath>
            <clipPath clipPathUnits="userSpaceOnUse" id="clipPath57">
                <path d="M67 0.0096 L67 423.9924 L981.9956 423.9924 L981.9956 0.0096 Z"/>
            </clipPath>
            <clipPath clipPathUnits="userSpaceOnUse" id="clipPath58">
                <path d="M6 25 L988 25 L988 491 L6 491 L6 25 Z"/>
            </clipPath>
            <clipPath clipPathUnits="userSpaceOnUse" id="clipPath59">
                <path d="M0 0 L983 0 L983 21 L0 21 L0 0 Z"/>
            </clipPath>
            <clipPath clipPathUnits="userSpaceOnUse" id="clipPath60">
                <path d="M0 0 L0 20 L983 20 L983 0 Z"/>
            </clipPath>
        </defs>
        <g style="stroke-linecap:butt; font-size:13px; fill:rgb(74,120,0); text-rendering:optimizeLegibility; image-rendering:optimizeQuality; color-rendering:optimizeQuality; font-family:'Times New Roman'; stroke-linejoin:round; stroke:rgb(74,120,0); color-interpolation:linearRGB; stroke-width:3;"
           transform="translate(558.9791,41.3842)">
            <path d="M0 4 L4 0 L8 4 L4 8 Z"
                  style="fill:none; clip-path:url(#clipPath2); opacity:0.749;"/>
            <path d="M0 4 L4 0 L8 4 L4 8 Z"
                  style="fill:none; clip-path:url(#clipPath3); opacity:0.749;"
                  transform="translate(16.7407,17.8271)"/>
            <path d="M0 4 L4 0 L8 4 L4 8 Z"
                  style="fill:none; clip-path:url(#clipPath4); opacity:0.749;"
                  transform="translate(-50.222,-11.0999)"/>
            <path d="M0 4 L4 0 L8 4 L4 8 Z"
                  style="fill:none; clip-path:url(#clipPath5); opacity:0.749;"
                  transform="translate(-33.4813,-14.8746)"/>
            <path d="M0 4 L4 0 L8 4 L4 8 Z"
                  style="fill:none; clip-path:url(#clipPath6); opacity:0.749;"
                  transform="translate(-16.7407,-11.0999)"/>
            <path d="M0 4 L4 0 L8 4 L4 8 Z"
                  style="fill:none; clip-path:url(#clipPath7); opacity:0.749;"
                  transform="translate(50.222,69.8508)"/>
            <path d="M0 4 L4 0 L8 4 L4 8 Z"
                  style="fill:none; clip-path:url(#clipPath8); opacity:0.749;"
                  transform="translate(33.4813,41.4844)"/>
            <path d="M0 4 L4 0 L8 4 L4 8 Z"
                  style="fill:none; clip-path:url(#clipPath9); opacity:0.749;"
                  transform="translate(66.9626,101.6555)"/>
            <path d="M0 4 L4 0 L8 4 L4 8 Z"
                  style="fill:none; clip-path:url(#clipPath10); opacity:0.749;"
                  transform="translate(83.7032,135.5531)"/>
            <path d="M0 4 L4 0 L8 4 L4 8 Z"
                  style="fill:none; clip-path:url(#clipPath11); opacity:0.749;"
                  transform="translate(100.4439,170.1982)"/>
            <path d="M0 4 L4 0 L8 4 L4 8 Z"
                  style="fill:none; clip-path:url(#clipPath12); opacity:0.749;"
                  transform="translate(117.1846,204.32)"/>
            <path d="M0 4 L4 0 L8 4 L4 8 Z"
                  style="fill:none; clip-path:url(#clipPath13); opacity:0.749;"
                  transform="translate(184.1472,316.8511)"/>
            <path d="M0 4 L4 0 L8 4 L4 8 Z"
                  style="fill:none; clip-path:url(#clipPath14); opacity:0.749;"
                  transform="translate(368.2945,397.6971)"/>
            <path d="M0 4 L4 0 L8 4 L4 8 Z"
                  style="fill:none; clip-path:url(#clipPath15); opacity:0.749;"
                  transform="translate(385.0352,397.9587)"/>
            <path d="M0 4 L4 0 L8 4 L4 8 Z"
                  style="fill:none; clip-path:url(#clipPath16); opacity:0.749;"
                  transform="translate(401.7758,398.0709)"/>
            <path d="M0 4 L4 0 L8 4 L4 8 Z"
                  style="fill:none; clip-path:url(#clipPath17); opacity:0.749;"
                  transform="translate(418.5165,398.1082)"/>
            <path d="M0 4 L4 0 L8 4 L4 8 Z"
                  style="fill:none; clip-path:url(#clipPath18); opacity:0.749;"
                  transform="translate(318.0725,394.6624)"/>
            <path d="M0 4 L4 0 L8 4 L4 8 Z"
                  style="fill:none; clip-path:url(#clipPath19); opacity:0.749;"
                  transform="translate(334.8132,396.2321)"/>
            <path d="M0 4 L4 0 L8 4 L4 8 Z"
                  style="fill:none; clip-path:url(#clipPath20); opacity:0.749;"
                  transform="translate(351.5538,397.1739)"/>
            <path d="M0 4 L4 0 L8 4 L4 8 Z"
                  style="fill:none; clip-path:url(#clipPath21); opacity:0.749;"
                  transform="translate(251.1099,375.7141)"/>
            <path d="M0 4 L4 0 L8 4 L4 8 Z"
                  style="fill:none; clip-path:url(#clipPath22); opacity:0.749;"
                  transform="translate(200.8879,336.5843)"/>
            <path d="M0 4 L4 0 L8 4 L4 8 Z"
                  style="fill:none; clip-path:url(#clipPath23); opacity:0.749;"
                  transform="translate(234.3692,365.7355)"/>
            <path d="M0 4 L4 0 L8 4 L4 8 Z"
                  style="fill:none; clip-path:url(#clipPath24); opacity:0.749;"
                  transform="translate(217.6286,352.8043)"/>
            <path d="M0 4 L4 0 L8 4 L4 8 Z"
                  style="fill:none; clip-path:url(#clipPath25); opacity:0.749;"
                  transform="translate(267.8505,383.1514)"/>
            <path d="M0 4 L4 0 L8 4 L4 8 Z"
                  style="fill:none; clip-path:url(#clipPath26); opacity:0.749;"
                  transform="translate(284.5912,388.4958)"/>
            <path d="M0 4 L4 0 L8 4 L4 8 Z"
                  style="fill:none; clip-path:url(#clipPath27); opacity:0.749;"
                  transform="translate(301.3319,392.1958)"/>
            <path d="M0 4 L4 0 L8 4 L4 8 Z"
                  style="fill:none; clip-path:url(#clipPath28); opacity:0.749;"
                  transform="translate(133.9253,236.7975)"/>
            <path d="M0 4 L4 0 L8 4 L4 8 Z"
                  style="fill:none; clip-path:url(#clipPath29); opacity:0.749;"
                  transform="translate(167.4066,293.5302)"/>
            <path d="M0 4 L4 0 L8 4 L4 8 Z"
                  style="fill:none; clip-path:url(#clipPath30); opacity:0.749;"
                  transform="translate(150.666,266.7335)"/>
            <path d="M0 4 L4 0 L8 4 L4 8 Z"
                  style="fill:none; clip-path:url(#clipPath31); opacity:0.749;"
                  transform="translate(-83.7033,17.8271)"/>
            <path d="M0 4 L4 0 L8 4 L4 8 Z"
                  style="fill:none; clip-path:url(#clipPath32); opacity:0.749;"
                  transform="translate(-117.1846,69.8508)"/>
            <path d="M0 4 L4 0 L8 4 L4 8 Z"
                  style="fill:none; clip-path:url(#clipPath33); opacity:0.749;"
                  transform="translate(-100.4439,41.4844)"/>
            <path d="M0 4 L4 0 L8 4 L4 8 Z"
                  style="fill:none; clip-path:url(#clipPath34); opacity:0.749;"
                  transform="translate(-133.9253,101.6555)"/>
            <path d="M0 4 L4 0 L8 4 L4 8 Z"
                  style="fill:none; clip-path:url(#clipPath35); opacity:0.749;"
                  transform="translate(-150.666,135.5531)"/>
            <path d="M0 4 L4 0 L8 4 L4 8 Z"
                  style="fill:none; clip-path:url(#clipPath36); opacity:0.749;"
                  transform="translate(-167.4066,170.1982)"/>
            <path d="M0 4 L4 0 L8 4 L4 8 Z"
                  style="fill:none; clip-path:url(#clipPath37); opacity:0.749;"
                  transform="translate(-184.1472,204.32)"/>
            <path d="M0 4 L4 0 L8 4 L4 8 Z"
                  style="fill:none; clip-path:url(#clipPath38); opacity:0.749;"
                  transform="translate(-200.8879,236.7975)"/>
            <path d="M0 4 L4 0 L8 4 L4 8 Z"
                  style="fill:none; clip-path:url(#clipPath39); opacity:0.749;"
                  transform="translate(-234.3692,293.5302)"/>
            <path d="M0 4 L4 0 L8 4 L4 8 Z"
                  style="fill:none; clip-path:url(#clipPath40); opacity:0.749;"
                  transform="translate(-251.1099,316.8511)"/>
            <path d="M0 4 L4 0 L8 4 L4 8 Z"
                  style="fill:none; clip-path:url(#clipPath41); opacity:0.749;"
                  transform="translate(-217.6286,266.7335)"/>
            <path d="M0 4 L4 0 L8 4 L4 8 Z"
                  style="fill:none; clip-path:url(#clipPath42); opacity:0.749;"
                  transform="translate(-267.8506,336.5843)"/>
            <path d="M0 4 L4 0 L8 4 L4 8 Z"
                  style="fill:none; clip-path:url(#clipPath43); opacity:0.749;"
                  transform="translate(-301.3319,365.7355)"/>
            <path d="M0 4 L4 0 L8 4 L4 8 Z"
                  style="fill:none; clip-path:url(#clipPath44); opacity:0.749;"
                  transform="translate(-284.5912,352.8043)"/>
            <path d="M0 4 L4 0 L8 4 L4 8 Z"
                  style="fill:none; clip-path:url(#clipPath45); opacity:0.749;"
                  transform="translate(-318.0725,375.7141)"/>
            <path d="M0 4 L4 0 L8 4 L4 8 Z"
                  style="fill:none; clip-path:url(#clipPath46); opacity:0.749;"
                  transform="translate(-368.2945,392.1958)"/>
            <path d="M0 4 L4 0 L8 4 L4 8 Z"
                  style="fill:none; clip-path:url(#clipPath47); opacity:0.749;"
                  transform="translate(-385.0352,394.6624)"/>
            <path d="M0 4 L4 0 L8 4 L4 8 Z"
                  style="fill:none; clip-path:url(#clipPath48); opacity:0.749;"
                  transform="translate(-418.5165,397.1739)"/>
            <path d="M0 4 L4 0 L8 4 L4 8 Z"
                  style="fill:none; clip-path:url(#clipPath49); opacity:0.749;"
                  transform="translate(-401.7758,396.2321)"/>
            <path d="M0 4 L4 0 L8 4 L4 8 Z"
                  style="fill:none; clip-path:url(#clipPath50); opacity:0.749;"
                  transform="translate(-485.4791,398.1082)"/>
            <path d="M0 4 L4 0 L8 4 L4 8 Z"
                  style="fill:none; clip-path:url(#clipPath51); opacity:0.749;"
                  transform="translate(-468.7385,398.0709)"/>
            <path d="M0 4 L4 0 L8 4 L4 8 Z"
                  style="fill:none; clip-path:url(#clipPath52); opacity:0.749;"
                  transform="translate(-451.9978,397.9587)"/>
            <path d="M0 4 L4 0 L8 4 L4 8 Z"
                  style="fill:none; clip-path:url(#clipPath53); opacity:0.749;"
                  transform="translate(-435.2571,397.6971)"/>
            <path d="M0 4 L4 0 L8 4 L4 8 Z"
                  style="fill:none; clip-path:url(#clipPath54); opacity:0.749;"
                  transform="translate(-351.5538,388.4958)"/>
            <path d="M0 4 L4 0 L8 4 L4 8 Z"
                  style="fill:none; clip-path:url(#clipPath55); opacity:0.749;"
                  transform="translate(-334.8132,383.1514)"/>
            <path d="M0 4 L4 0 L8 4 L4 8 Z"
                  style="fill:none; clip-path:url(#clipPath56); opacity:0.749;"
                  transform="translate(-66.9626,0)"/>
            <path d="M72 418.9924 L88.7407 418.955 L105.4813 418.8429 L122.222 418.5813 L138.9626 418.0581 L155.7033 417.1163 L172.444 415.5466 L189.1846 413.0799 L205.9253 409.38 L222.6659 404.0356 L239.4066 396.5983 L256.1472 386.6196 L272.8879 373.6884 L289.6286 357.4684 L306.3692 337.7353 L323.1099 314.4143 L339.8506 287.6177 L356.5912 257.6816 L373.3319 225.2042 L390.0725 191.0823 L406.8132 156.4373 L423.5539 122.5396 L440.2945 90.7349 L457.0352 62.3686 L473.7758 38.7113 L490.5165 20.8842 L507.2571 9.7843 L523.9978 6.0096 L540.7385 9.7843 L557.4791 20.8842 L574.2198 38.7113 L590.9604 62.3686 L607.7011 90.7349 L624.4418 122.5396 L641.1824 156.4373 L657.923 191.0823 L674.6638 225.2042 L691.4044 257.6816 L708.1451 287.6177 L724.8857 314.4143 L741.6263 337.7353 L758.3671 357.4684 L775.1077 373.6884 L791.8483 386.6196 L808.589 396.5983 L825.3297 404.0356 L842.0704 409.38 L858.811 413.0799 L875.5516 415.5466 L892.2923 417.1163 L909.033 418.0581 L925.7736 418.5813 L942.5143 418.8429 L959.2549 418.955 L975.9956 418.9924"
                  style="fill:none; clip-path:url(#clipPath57); opacity:0.749;"
                  transform="translate(-552.9791,-16.3842)"/>
        </g>
        <g transform="translate(6,25)"
           style="stroke-linecap:butt; font-size:13px; text-rendering:optimizeLegibility; image-rendering:optimizeQuality; color-rendering:optimizeQuality; font-family:'Times New Roman'; stroke-linejoin:round; color-interpolation:linearRGB;">
            <path d="M72 418.9999 L975.9956 418.9999"
                  style="fill:none; clip-path:url(#clipPath1);"/>
        </g>
        <g transform="translate(6,25)"
           style="font-size:13px; text-rendering:optimizeLegibility; color-rendering:optimizeQuality; image-rendering:optimizeQuality; font-family:'Times New Roman'; color-interpolation:linearRGB;">
            <path d="M72 418.9999 L72 426.4399"
                  style="fill:none; clip-path:url(#clipPath1);"/>
            <path d="M74.6094 464.4375 Q74.6094 462.5156 75.1953 461.125 Q75.7812 459.7344 76.7344 459.0469 Q77.4844 458.5156 78.2812 458.5156 Q79.5781 458.5156 80.6094 459.8281 Q81.8906 461.4688 81.8906 464.2656 Q81.8906 466.2188 81.3281 467.5938 Q80.7656 468.9688 79.8906 469.5859 Q79.0156 470.2031 78.2031 470.2031 Q76.5938 470.2031 75.5156 468.2969 Q74.6094 466.7031 74.6094 464.4375 ZM76.2344 464.6406 Q76.2344 466.9688 76.8125 468.4375 Q77.2812 469.6719 78.2188 469.6719 Q78.6719 469.6719 79.1562 469.2734 Q79.6406 468.875 79.8906 467.9219 Q80.2656 466.5 80.2656 463.9062 Q80.2656 461.9688 79.875 460.6875 Q79.5625 459.7344 79.0938 459.3281 Q78.75 459.0625 78.2812 459.0625 Q77.7031 459.0625 77.2656 459.5625 Q76.6719 460.25 76.4531 461.7266 Q76.2344 463.2031 76.2344 464.6406 Z"
                  style="clip-path:url(#clipPath58); stroke:none;"
                  transform="translate(-6,-25)"/>
        </g>
        <g transform="translate(6,25)"
           style="font-size:13px; text-rendering:optimizeLegibility; color-rendering:optimizeQuality; image-rendering:optimizeQuality; font-family:'Times New Roman'; color-interpolation:linearRGB;">
            <path d="M239.4066 418.9999 L239.4066 426.4399"
                  style="fill:none; clip-path:url(#clipPath1);"/>
            <path d="M239 459.8438 L241.7344 458.5156 L242 458.5156 L242 468.0156 Q242 468.9688 242.0781 469.1953 Q242.1562 469.4219 242.4062 469.5469 Q242.6562 469.6719 243.4219 469.6875 L243.4219 470 L239.1875 470 L239.1875 469.6875 Q239.9844 469.6719 240.2188 469.5547 Q240.4531 469.4375 240.5469 469.2344 Q240.6406 469.0312 240.6406 468.0156 L240.6406 461.9375 Q240.6406 460.7188 240.5469 460.3594 Q240.5 460.0938 240.3438 459.9688 Q240.1875 459.8438 239.9688 459.8438 Q239.6719 459.8438 239.1094 460.1094 L239 459.8438 ZM246.1094 464.4375 Q246.1094 462.5156 246.6953 461.125 Q247.2812 459.7344 248.2344 459.0469 Q248.9844 458.5156 249.7812 458.5156 Q251.0781 458.5156 252.1094 459.8281 Q253.3906 461.4688 253.3906 464.2656 Q253.3906 466.2188 252.8281 467.5938 Q252.2656 468.9688 251.3906 469.5859 Q250.5156 470.2031 249.7031 470.2031 Q248.0938 470.2031 247.0156 468.2969 Q246.1094 466.7031 246.1094 464.4375 ZM247.7344 464.6406 Q247.7344 466.9688 248.3125 468.4375 Q248.7812 469.6719 249.7188 469.6719 Q250.1719 469.6719 250.6562 469.2734 Q251.1406 468.875 251.3906 467.9219 Q251.7656 466.5 251.7656 463.9062 Q251.7656 461.9688 251.375 460.6875 Q251.0625 459.7344 250.5938 459.3281 Q250.25 459.0625 249.7812 459.0625 Q249.2031 459.0625 248.7656 459.5625 Q248.1719 460.25 247.9531 461.7266 Q247.7344 463.2031 247.7344 464.6406 Z"
                  style="clip-path:url(#clipPath58); stroke:none;"
                  transform="translate(-6,-25)"/>
        </g>
        <g transform="translate(6,25)"
           style="font-size:13px; text-rendering:optimizeLegibility; color-rendering:optimizeQuality; image-rendering:optimizeQuality; font-family:'Times New Roman'; color-interpolation:linearRGB;">
            <path d="M406.8132 418.9999 L406.8132 426.4399"
                  style="fill:none; clip-path:url(#clipPath1);"/>
            <path d="M411.7969 467.8281 L411 470 L404.3594 470 L404.3594 469.6875 Q407.2969 467.0156 408.4922 465.3281 Q409.6875 463.6406 409.6875 462.2344 Q409.6875 461.1562 409.0312 460.4688 Q408.375 459.7812 407.4688 459.7812 Q406.625 459.7812 405.9688 460.2656 Q405.3125 460.75 405 461.6875 L404.6875 461.6875 Q404.8906 460.1562 405.75 459.3359 Q406.6094 458.5156 407.9062 458.5156 Q409.2656 458.5156 410.1875 459.3906 Q411.1094 460.2656 411.1094 461.4688 Q411.1094 462.3281 410.7031 463.1719 Q410.0938 464.5156 408.7188 466.0312 Q406.6406 468.2812 406.1406 468.75 L409.0781 468.75 Q409.9688 468.75 410.3281 468.6797 Q410.6875 468.6094 410.9766 468.4062 Q411.2656 468.2031 411.4844 467.8281 L411.7969 467.8281 ZM413.1094 464.4375 Q413.1094 462.5156 413.6953 461.125 Q414.2812 459.7344 415.2344 459.0469 Q415.9844 458.5156 416.7812 458.5156 Q418.0781 458.5156 419.1094 459.8281 Q420.3906 461.4688 420.3906 464.2656 Q420.3906 466.2188 419.8281 467.5938 Q419.2656 468.9688 418.3906 469.5859 Q417.5156 470.2031 416.7031 470.2031 Q415.0938 470.2031 414.0156 468.2969 Q413.1094 466.7031 413.1094 464.4375 ZM414.7344 464.6406 Q414.7344 466.9688 415.3125 468.4375 Q415.7812 469.6719 416.7188 469.6719 Q417.1719 469.6719 417.6562 469.2734 Q418.1406 468.875 418.3906 467.9219 Q418.7656 466.5 418.7656 463.9062 Q418.7656 461.9688 418.375 460.6875 Q418.0625 459.7344 417.5938 459.3281 Q417.25 459.0625 416.7812 459.0625 Q416.2031 459.0625 415.7656 459.5625 Q415.1719 460.25 414.9531 461.7266 Q414.7344 463.2031 414.7344 464.6406 Z"
                  style="clip-path:url(#clipPath58); stroke:none;"
                  transform="translate(-6,-25)"/>
        </g>
        <g transform="translate(6,25)"
           style="font-size:13px; text-rendering:optimizeLegibility; color-rendering:optimizeQuality; image-rendering:optimizeQuality; font-family:'Times New Roman'; color-interpolation:linearRGB;">
            <path d="M574.2198 418.9999 L574.2198 426.4399"
                  style="fill:none; clip-path:url(#clipPath1);"/>
            <path d="M572.8594 460.8906 Q573.3438 459.75 574.0781 459.1328 Q574.8125 458.5156 575.9062 458.5156 Q577.2656 458.5156 577.9844 459.3906 Q578.5312 460.0469 578.5312 460.7969 Q578.5312 462.0156 576.9844 463.3281 Q578.0312 463.7344 578.5625 464.4922 Q579.0938 465.25 579.0938 466.2656 Q579.0938 467.7344 578.1562 468.7969 Q576.9531 470.2031 574.6406 470.2031 Q573.5156 470.2031 573.1016 469.9219 Q572.6875 469.6406 572.6875 469.3125 Q572.6875 469.0625 572.8828 468.8828 Q573.0781 468.7031 573.3594 468.7031 Q573.5625 468.7031 573.7812 468.7656 Q573.9219 468.8125 574.4141 469.0703 Q574.9062 469.3281 575.1094 469.3906 Q575.4062 469.4844 575.7656 469.4844 Q576.6094 469.4844 577.2344 468.8281 Q577.8594 468.1719 577.8594 467.2656 Q577.8594 466.6094 577.5625 465.9844 Q577.3594 465.5312 577.0938 465.2812 Q576.7344 464.9531 576.1172 464.6797 Q575.5 464.4062 574.8438 464.4062 L574.5781 464.4062 L574.5781 464.1719 Q575.2344 464.0781 575.8984 463.6875 Q576.5625 463.2969 576.8594 462.75 Q577.1562 462.2031 577.1562 461.5469 Q577.1562 460.6875 576.6172 460.1641 Q576.0781 459.6406 575.2812 459.6406 Q574 459.6406 573.1406 461.0156 L572.8594 460.8906 ZM581.1094 464.4375 Q581.1094 462.5156 581.6953 461.125 Q582.2812 459.7344 583.2344 459.0469 Q583.9844 458.5156 584.7812 458.5156 Q586.0781 458.5156 587.1094 459.8281 Q588.3906 461.4688 588.3906 464.2656 Q588.3906 466.2188 587.8281 467.5938 Q587.2656 468.9688 586.3906 469.5859 Q585.5156 470.2031 584.7031 470.2031 Q583.0938 470.2031 582.0156 468.2969 Q581.1094 466.7031 581.1094 464.4375 ZM582.7344 464.6406 Q582.7344 466.9688 583.3125 468.4375 Q583.7812 469.6719 584.7188 469.6719 Q585.1719 469.6719 585.6562 469.2734 Q586.1406 468.875 586.3906 467.9219 Q586.7656 466.5 586.7656 463.9062 Q586.7656 461.9688 586.375 460.6875 Q586.0625 459.7344 585.5938 459.3281 Q585.25 459.0625 584.7812 459.0625 Q584.2031 459.0625 583.7656 459.5625 Q583.1719 460.25 582.9531 461.7266 Q582.7344 463.2031 582.7344 464.6406 Z"
                  style="clip-path:url(#clipPath58); stroke:none;"
                  transform="translate(-6,-25)"/>
        </g>
        <g transform="translate(6,25)"
           style="font-size:13px; text-rendering:optimizeLegibility; color-rendering:optimizeQuality; image-rendering:optimizeQuality; font-family:'Times New Roman'; color-interpolation:linearRGB;">
            <path d="M741.6263 418.9999 L741.6263 426.4399"
                  style="fill:none; clip-path:url(#clipPath1);"/>
            <path d="M746.9062 465.8438 L746.9062 467.0312 L745.4062 467.0312 L745.4062 470 L744.0312 470 L744.0312 467.0312 L739.2656 467.0312 L739.2656 465.9688 L744.4844 458.5156 L745.4062 458.5156 L745.4062 465.8438 L746.9062 465.8438 ZM744.0312 465.8438 L744.0312 460.2656 L740.0781 465.8438 L744.0312 465.8438 ZM748.1094 464.4375 Q748.1094 462.5156 748.6953 461.125 Q749.2812 459.7344 750.2344 459.0469 Q750.9844 458.5156 751.7812 458.5156 Q753.0781 458.5156 754.1094 459.8281 Q755.3906 461.4688 755.3906 464.2656 Q755.3906 466.2188 754.8281 467.5938 Q754.2656 468.9688 753.3906 469.5859 Q752.5156 470.2031 751.7031 470.2031 Q750.0938 470.2031 749.0156 468.2969 Q748.1094 466.7031 748.1094 464.4375 ZM749.7344 464.6406 Q749.7344 466.9688 750.3125 468.4375 Q750.7812 469.6719 751.7188 469.6719 Q752.1719 469.6719 752.6562 469.2734 Q753.1406 468.875 753.3906 467.9219 Q753.7656 466.5 753.7656 463.9062 Q753.7656 461.9688 753.375 460.6875 Q753.0625 459.7344 752.5938 459.3281 Q752.25 459.0625 751.7812 459.0625 Q751.2031 459.0625 750.7656 459.5625 Q750.1719 460.25 749.9531 461.7266 Q749.7344 463.2031 749.7344 464.6406 Z"
                  style="clip-path:url(#clipPath58); stroke:none;"
                  transform="translate(-6,-25)"/>
        </g>
        <g transform="translate(6,25)"
           style="font-size:13px; text-rendering:optimizeLegibility; color-rendering:optimizeQuality; image-rendering:optimizeQuality; font-family:'Times New Roman'; color-interpolation:linearRGB;">
            <path d="M909.033 418.9999 L909.033 426.4399"
                  style="fill:none; clip-path:url(#clipPath1);"/>
            <path d="M914.375 458.75 L913.7344 460.1562 L910.3438 460.1562 L909.6094 461.6719 Q911.8125 461.9844 913.0938 463.2969 Q914.2031 464.4375 914.2031 465.9531 Q914.2031 466.8438 913.8359 467.6016 Q913.4688 468.3594 912.9219 468.8906 Q912.375 469.4219 911.7031 469.75 Q910.75 470.2031 909.75 470.2031 Q908.7344 470.2031 908.2734 469.8594 Q907.8125 469.5156 907.8125 469.0938 Q907.8125 468.8594 908.0078 468.6797 Q908.2031 468.5 908.4844 468.5 Q908.7031 468.5 908.8672 468.5703 Q909.0312 468.6406 909.4219 468.9062 Q910.0312 469.3438 910.6719 469.3438 Q911.6562 469.3438 912.3906 468.6094 Q913.125 467.875 913.125 466.8281 Q913.125 465.7969 912.4688 464.9141 Q911.8125 464.0312 910.6562 463.5469 Q909.75 463.1719 908.1875 463.125 L910.3438 458.75 L914.375 458.75 ZM916.1094 464.4375 Q916.1094 462.5156 916.6953 461.125 Q917.2812 459.7344 918.2344 459.0469 Q918.9844 458.5156 919.7812 458.5156 Q921.0781 458.5156 922.1094 459.8281 Q923.3906 461.4688 923.3906 464.2656 Q923.3906 466.2188 922.8281 467.5938 Q922.2656 468.9688 921.3906 469.5859 Q920.5156 470.2031 919.7031 470.2031 Q918.0938 470.2031 917.0156 468.2969 Q916.1094 466.7031 916.1094 464.4375 ZM917.7344 464.6406 Q917.7344 466.9688 918.3125 468.4375 Q918.7812 469.6719 919.7188 469.6719 Q920.1719 469.6719 920.6562 469.2734 Q921.1406 468.875 921.3906 467.9219 Q921.7656 466.5 921.7656 463.9062 Q921.7656 461.9688 921.375 460.6875 Q921.0625 459.7344 920.5938 459.3281 Q920.25 459.0625 919.7812 459.0625 Q919.2031 459.0625 918.7656 459.5625 Q918.1719 460.25 917.9531 461.7266 Q917.7344 463.2031 917.7344 464.6406 Z"
                  style="clip-path:url(#clipPath58); stroke:none;"
                  transform="translate(-6,-25)"/>
        </g>
        <g transform="translate(6,25)"
           style="font-size:13px; text-rendering:optimizeLegibility; color-rendering:optimizeQuality; image-rendering:optimizeQuality; font-family:'Times New Roman'; color-interpolation:linearRGB;">
            <path d="M155.7033 418.9999 L155.7033 422.7199"
                  style="fill:none; clip-path:url(#clipPath1);"/>
        </g>
        <g transform="translate(6,25)"
           style="font-size:13px; text-rendering:optimizeLegibility; color-rendering:optimizeQuality; image-rendering:optimizeQuality; font-family:'Times New Roman'; color-interpolation:linearRGB;">
            <path d="M323.1099 418.9999 L323.1099 422.7199"
                  style="fill:none; clip-path:url(#clipPath1);"/>
        </g>
        <g transform="translate(6,25)"
           style="font-size:13px; text-rendering:optimizeLegibility; color-rendering:optimizeQuality; image-rendering:optimizeQuality; font-family:'Times New Roman'; color-interpolation:linearRGB;">
            <path d="M490.5165 418.9999 L490.5165 422.7199"
                  style="fill:none; clip-path:url(#clipPath1);"/>
        </g>
        <g transform="translate(6,25)"
           style="font-size:13px; text-rendering:optimizeLegibility; color-rendering:optimizeQuality; image-rendering:optimizeQuality; font-family:'Times New Roman'; color-interpolation:linearRGB;">
            <path d="M657.923 418.9999 L657.923 422.7199"
                  style="fill:none; clip-path:url(#clipPath1);"/>
        </g>
        <g transform="translate(6,25)"
           style="font-size:13px; text-rendering:optimizeLegibility; color-rendering:optimizeQuality; image-rendering:optimizeQuality; font-family:'Times New Roman'; color-interpolation:linearRGB;">
            <path d="M825.3297 418.9999 L825.3297 422.7199"
                  style="fill:none; clip-path:url(#clipPath1);"/>
        </g>
        <g transform="translate(6,25)"
           style="stroke-linecap:butt; font-size:13px; text-rendering:optimizeLegibility; image-rendering:optimizeQuality; color-rendering:optimizeQuality; font-family:'Times New Roman'; stroke-linejoin:round; color-interpolation:linearRGB;">
            <path d="M72 418.9924 L72 6.0096"
                  style="fill:none; clip-path:url(#clipPath1);"/>
        </g>
        <g transform="translate(6,25)"
           style="font-size:13px; text-rendering:optimizeLegibility; color-rendering:optimizeQuality; image-rendering:optimizeQuality; font-family:'Times New Roman'; color-interpolation:linearRGB;">
            <path d="M72 418.9999 L64.56 418.9999"
                  style="fill:none; clip-path:url(#clipPath1);"/>
            <path d="M55.6094 443.4375 Q55.6094 441.5156 56.1953 440.125 Q56.7812 438.7344 57.7344 438.0469 Q58.4844 437.5156 59.2812 437.5156 Q60.5781 437.5156 61.6094 438.8281 Q62.8906 440.4688 62.8906 443.2656 Q62.8906 445.2188 62.3281 446.5938 Q61.7656 447.9688 60.8906 448.5859 Q60.0156 449.2031 59.2031 449.2031 Q57.5938 449.2031 56.5156 447.2969 Q55.6094 445.7031 55.6094 443.4375 ZM57.2344 443.6406 Q57.2344 445.9688 57.8125 447.4375 Q58.2812 448.6719 59.2188 448.6719 Q59.6719 448.6719 60.1562 448.2734 Q60.6406 447.875 60.8906 446.9219 Q61.2656 445.5 61.2656 442.9062 Q61.2656 440.9688 60.875 439.6875 Q60.5625 438.7344 60.0938 438.3281 Q59.75 438.0625 59.2812 438.0625 Q58.7031 438.0625 58.2656 438.5625 Q57.6719 439.25 57.4531 440.7266 Q57.2344 442.2031 57.2344 443.6406 Z"
                  style="clip-path:url(#clipPath58); stroke:none;"
                  transform="translate(-6,-25)"/>
        </g>
        <g transform="translate(6,25)"
           style="font-size:13px; text-rendering:optimizeLegibility; color-rendering:optimizeQuality; image-rendering:optimizeQuality; font-family:'Times New Roman'; color-interpolation:linearRGB;">
            <path d="M72 344.2532 L64.56 344.2532"
                  style="fill:none; clip-path:url(#clipPath1);"/>
            <path d="M25 364.8438 L27.7344 363.5156 L28 363.5156 L28 373.0156 Q28 373.9688 28.0781 374.1953 Q28.1562 374.4219 28.4062 374.5469 Q28.6562 374.6719 29.4219 374.6875 L29.4219 375 L25.1875 375 L25.1875 374.6875 Q25.9844 374.6719 26.2188 374.5547 Q26.4531 374.4375 26.5469 374.2344 Q26.6406 374.0312 26.6406 373.0156 L26.6406 366.9375 Q26.6406 365.7188 26.5469 365.3594 Q26.5 365.0938 26.3438 364.9688 Q26.1875 364.8438 25.9688 364.8438 Q25.6719 364.8438 25.1094 365.1094 L25 364.8438 ZM32.1094 369.4375 Q32.1094 367.5156 32.6953 366.125 Q33.2812 364.7344 34.2344 364.0469 Q34.9844 363.5156 35.7812 363.5156 Q37.0781 363.5156 38.1094 364.8281 Q39.3906 366.4688 39.3906 369.2656 Q39.3906 371.2188 38.8281 372.5938 Q38.2656 373.9688 37.3906 374.5859 Q36.5156 375.2031 35.7031 375.2031 Q34.0938 375.2031 33.0156 373.2969 Q32.1094 371.7031 32.1094 369.4375 ZM33.7344 369.6406 Q33.7344 371.9688 34.3125 373.4375 Q34.7812 374.6719 35.7188 374.6719 Q36.1719 374.6719 36.6562 374.2734 Q37.1406 373.875 37.3906 372.9219 Q37.7656 371.5 37.7656 368.9062 Q37.7656 366.9688 37.375 365.6875 Q37.0625 364.7344 36.5938 364.3281 Q36.25 364.0625 35.7812 364.0625 Q35.2031 364.0625 34.7656 364.5625 Q34.1719 365.25 33.9531 366.7266 Q33.7344 368.2031 33.7344 369.6406 ZM40.6094 369.4375 Q40.6094 367.5156 41.1953 366.125 Q41.7812 364.7344 42.7344 364.0469 Q43.4844 363.5156 44.2812 363.5156 Q45.5781 363.5156 46.6094 364.8281 Q47.8906 366.4688 47.8906 369.2656 Q47.8906 371.2188 47.3281 372.5938 Q46.7656 373.9688 45.8906 374.5859 Q45.0156 375.2031 44.2031 375.2031 Q42.5938 375.2031 41.5156 373.2969 Q40.6094 371.7031 40.6094 369.4375 ZM42.2344 369.6406 Q42.2344 371.9688 42.8125 373.4375 Q43.2812 374.6719 44.2188 374.6719 Q44.6719 374.6719 45.1562 374.2734 Q45.6406 373.875 45.8906 372.9219 Q46.2656 371.5 46.2656 368.9062 Q46.2656 366.9688 45.875 365.6875 Q45.5625 364.7344 45.0938 364.3281 Q44.75 364.0625 44.2812 364.0625 Q43.7031 364.0625 43.2656 364.5625 Q42.6719 365.25 42.4531 366.7266 Q42.2344 368.2031 42.2344 369.6406 ZM49.1094 369.4375 Q49.1094 367.5156 49.6953 366.125 Q50.2812 364.7344 51.2344 364.0469 Q51.9844 363.5156 52.7812 363.5156 Q54.0781 363.5156 55.1094 364.8281 Q56.3906 366.4688 56.3906 369.2656 Q56.3906 371.2188 55.8281 372.5938 Q55.2656 373.9688 54.3906 374.5859 Q53.5156 375.2031 52.7031 375.2031 Q51.0938 375.2031 50.0156 373.2969 Q49.1094 371.7031 49.1094 369.4375 ZM50.7344 369.6406 Q50.7344 371.9688 51.3125 373.4375 Q51.7812 374.6719 52.7188 374.6719 Q53.1719 374.6719 53.6562 374.2734 Q54.1406 373.875 54.3906 372.9219 Q54.7656 371.5 54.7656 368.9062 Q54.7656 366.9688 54.375 365.6875 Q54.0625 364.7344 53.5938 364.3281 Q53.25 364.0625 52.7812 364.0625 Q52.2031 364.0625 51.7656 364.5625 Q51.1719 365.25 50.9531 366.7266 Q50.7344 368.2031 50.7344 369.6406 ZM57.6094 369.4375 Q57.6094 367.5156 58.1953 366.125 Q58.7812 364.7344 59.7344 364.0469 Q60.4844 363.5156 61.2812 363.5156 Q62.5781 363.5156 63.6094 364.8281 Q64.8906 366.4688 64.8906 369.2656 Q64.8906 371.2188 64.3281 372.5938 Q63.7656 373.9688 62.8906 374.5859 Q62.0156 375.2031 61.2031 375.2031 Q59.5938 375.2031 58.5156 373.2969 Q57.6094 371.7031 57.6094 369.4375 ZM59.2344 369.6406 Q59.2344 371.9688 59.8125 373.4375 Q60.2812 374.6719 61.2188 374.6719 Q61.6719 374.6719 62.1562 374.2734 Q62.6406 373.875 62.8906 372.9219 Q63.2656 371.5 63.2656 368.9062 Q63.2656 366.9688 62.875 365.6875 Q62.5625 364.7344 62.0938 364.3281 Q61.75 364.0625 61.2812 364.0625 Q60.7031 364.0625 60.2656 364.5625 Q59.6719 365.25 59.4531 366.7266 Q59.2344 368.2031 59.2344 369.6406 Z"
                  style="clip-path:url(#clipPath58); stroke:none;"
                  transform="translate(-6,-25)"/>
        </g>
        <g transform="translate(6,25)"
           style="font-size:13px; text-rendering:optimizeLegibility; color-rendering:optimizeQuality; image-rendering:optimizeQuality; font-family:'Times New Roman'; color-interpolation:linearRGB;">
            <path d="M72 269.5065 L64.56 269.5065"
                  style="fill:none; clip-path:url(#clipPath1);"/>
            <path d="M30.7969 297.8281 L30 300 L23.3594 300 L23.3594 299.6875 Q26.2969 297.0156 27.4922 295.3281 Q28.6875 293.6406 28.6875 292.2344 Q28.6875 291.1562 28.0312 290.4688 Q27.375 289.7812 26.4688 289.7812 Q25.625 289.7812 24.9688 290.2656 Q24.3125 290.75 24 291.6875 L23.6875 291.6875 Q23.8906 290.1562 24.75 289.3359 Q25.6094 288.5156 26.9062 288.5156 Q28.2656 288.5156 29.1875 289.3906 Q30.1094 290.2656 30.1094 291.4688 Q30.1094 292.3281 29.7031 293.1719 Q29.0938 294.5156 27.7188 296.0312 Q25.6406 298.2812 25.1406 298.75 L28.0781 298.75 Q28.9688 298.75 29.3281 298.6797 Q29.6875 298.6094 29.9766 298.4062 Q30.2656 298.2031 30.4844 297.8281 L30.7969 297.8281 ZM32.1094 294.4375 Q32.1094 292.5156 32.6953 291.125 Q33.2812 289.7344 34.2344 289.0469 Q34.9844 288.5156 35.7812 288.5156 Q37.0781 288.5156 38.1094 289.8281 Q39.3906 291.4688 39.3906 294.2656 Q39.3906 296.2188 38.8281 297.5938 Q38.2656 298.9688 37.3906 299.5859 Q36.5156 300.2031 35.7031 300.2031 Q34.0938 300.2031 33.0156 298.2969 Q32.1094 296.7031 32.1094 294.4375 ZM33.7344 294.6406 Q33.7344 296.9688 34.3125 298.4375 Q34.7812 299.6719 35.7188 299.6719 Q36.1719 299.6719 36.6562 299.2734 Q37.1406 298.875 37.3906 297.9219 Q37.7656 296.5 37.7656 293.9062 Q37.7656 291.9688 37.375 290.6875 Q37.0625 289.7344 36.5938 289.3281 Q36.25 289.0625 35.7812 289.0625 Q35.2031 289.0625 34.7656 289.5625 Q34.1719 290.25 33.9531 291.7266 Q33.7344 293.2031 33.7344 294.6406 ZM40.6094 294.4375 Q40.6094 292.5156 41.1953 291.125 Q41.7812 289.7344 42.7344 289.0469 Q43.4844 288.5156 44.2812 288.5156 Q45.5781 288.5156 46.6094 289.8281 Q47.8906 291.4688 47.8906 294.2656 Q47.8906 296.2188 47.3281 297.5938 Q46.7656 298.9688 45.8906 299.5859 Q45.0156 300.2031 44.2031 300.2031 Q42.5938 300.2031 41.5156 298.2969 Q40.6094 296.7031 40.6094 294.4375 ZM42.2344 294.6406 Q42.2344 296.9688 42.8125 298.4375 Q43.2812 299.6719 44.2188 299.6719 Q44.6719 299.6719 45.1562 299.2734 Q45.6406 298.875 45.8906 297.9219 Q46.2656 296.5 46.2656 293.9062 Q46.2656 291.9688 45.875 290.6875 Q45.5625 289.7344 45.0938 289.3281 Q44.75 289.0625 44.2812 289.0625 Q43.7031 289.0625 43.2656 289.5625 Q42.6719 290.25 42.4531 291.7266 Q42.2344 293.2031 42.2344 294.6406 ZM49.1094 294.4375 Q49.1094 292.5156 49.6953 291.125 Q50.2812 289.7344 51.2344 289.0469 Q51.9844 288.5156 52.7812 288.5156 Q54.0781 288.5156 55.1094 289.8281 Q56.3906 291.4688 56.3906 294.2656 Q56.3906 296.2188 55.8281 297.5938 Q55.2656 298.9688 54.3906 299.5859 Q53.5156 300.2031 52.7031 300.2031 Q51.0938 300.2031 50.0156 298.2969 Q49.1094 296.7031 49.1094 294.4375 ZM50.7344 294.6406 Q50.7344 296.9688 51.3125 298.4375 Q51.7812 299.6719 52.7188 299.6719 Q53.1719 299.6719 53.6562 299.2734 Q54.1406 298.875 54.3906 297.9219 Q54.7656 296.5 54.7656 293.9062 Q54.7656 291.9688 54.375 290.6875 Q54.0625 289.7344 53.5938 289.3281 Q53.25 289.0625 52.7812 289.0625 Q52.2031 289.0625 51.7656 289.5625 Q51.1719 290.25 50.9531 291.7266 Q50.7344 293.2031 50.7344 294.6406 ZM57.6094 294.4375 Q57.6094 292.5156 58.1953 291.125 Q58.7812 289.7344 59.7344 289.0469 Q60.4844 288.5156 61.2812 288.5156 Q62.5781 288.5156 63.6094 289.8281 Q64.8906 291.4688 64.8906 294.2656 Q64.8906 296.2188 64.3281 297.5938 Q63.7656 298.9688 62.8906 299.5859 Q62.0156 300.2031 61.2031 300.2031 Q59.5938 300.2031 58.5156 298.2969 Q57.6094 296.7031 57.6094 294.4375 ZM59.2344 294.6406 Q59.2344 296.9688 59.8125 298.4375 Q60.2812 299.6719 61.2188 299.6719 Q61.6719 299.6719 62.1562 299.2734 Q62.6406 298.875 62.8906 297.9219 Q63.2656 296.5 63.2656 293.9062 Q63.2656 291.9688 62.875 290.6875 Q62.5625 289.7344 62.0938 289.3281 Q61.75 289.0625 61.2812 289.0625 Q60.7031 289.0625 60.2656 289.5625 Q59.6719 290.25 59.4531 291.7266 Q59.2344 293.2031 59.2344 294.6406 Z"
                  style="clip-path:url(#clipPath58); stroke:none;"
                  transform="translate(-6,-25)"/>
        </g>
        <g transform="translate(6,25)"
           style="font-size:13px; text-rendering:optimizeLegibility; color-rendering:optimizeQuality; image-rendering:optimizeQuality; font-family:'Times New Roman'; color-interpolation:linearRGB;">
            <path d="M72 194.7599 L64.56 194.7599"
                  style="fill:none; clip-path:url(#clipPath1);"/>
            <path d="M23.8594 215.8906 Q24.3438 214.75 25.0781 214.1328 Q25.8125 213.5156 26.9062 213.5156 Q28.2656 213.5156 28.9844 214.3906 Q29.5312 215.0469 29.5312 215.7969 Q29.5312 217.0156 27.9844 218.3281 Q29.0312 218.7344 29.5625 219.4922 Q30.0938 220.25 30.0938 221.2656 Q30.0938 222.7344 29.1562 223.7969 Q27.9531 225.2031 25.6406 225.2031 Q24.5156 225.2031 24.1016 224.9219 Q23.6875 224.6406 23.6875 224.3125 Q23.6875 224.0625 23.8828 223.8828 Q24.0781 223.7031 24.3594 223.7031 Q24.5625 223.7031 24.7812 223.7656 Q24.9219 223.8125 25.4141 224.0703 Q25.9062 224.3281 26.1094 224.3906 Q26.4062 224.4844 26.7656 224.4844 Q27.6094 224.4844 28.2344 223.8281 Q28.8594 223.1719 28.8594 222.2656 Q28.8594 221.6094 28.5625 220.9844 Q28.3594 220.5312 28.0938 220.2812 Q27.7344 219.9531 27.1172 219.6797 Q26.5 219.4062 25.8438 219.4062 L25.5781 219.4062 L25.5781 219.1719 Q26.2344 219.0781 26.8984 218.6875 Q27.5625 218.2969 27.8594 217.75 Q28.1562 217.2031 28.1562 216.5469 Q28.1562 215.6875 27.6172 215.1641 Q27.0781 214.6406 26.2812 214.6406 Q25 214.6406 24.1406 216.0156 L23.8594 215.8906 ZM32.1094 219.4375 Q32.1094 217.5156 32.6953 216.125 Q33.2812 214.7344 34.2344 214.0469 Q34.9844 213.5156 35.7812 213.5156 Q37.0781 213.5156 38.1094 214.8281 Q39.3906 216.4688 39.3906 219.2656 Q39.3906 221.2188 38.8281 222.5938 Q38.2656 223.9688 37.3906 224.5859 Q36.5156 225.2031 35.7031 225.2031 Q34.0938 225.2031 33.0156 223.2969 Q32.1094 221.7031 32.1094 219.4375 ZM33.7344 219.6406 Q33.7344 221.9688 34.3125 223.4375 Q34.7812 224.6719 35.7188 224.6719 Q36.1719 224.6719 36.6562 224.2734 Q37.1406 223.875 37.3906 222.9219 Q37.7656 221.5 37.7656 218.9062 Q37.7656 216.9688 37.375 215.6875 Q37.0625 214.7344 36.5938 214.3281 Q36.25 214.0625 35.7812 214.0625 Q35.2031 214.0625 34.7656 214.5625 Q34.1719 215.25 33.9531 216.7266 Q33.7344 218.2031 33.7344 219.6406 ZM40.6094 219.4375 Q40.6094 217.5156 41.1953 216.125 Q41.7812 214.7344 42.7344 214.0469 Q43.4844 213.5156 44.2812 213.5156 Q45.5781 213.5156 46.6094 214.8281 Q47.8906 216.4688 47.8906 219.2656 Q47.8906 221.2188 47.3281 222.5938 Q46.7656 223.9688 45.8906 224.5859 Q45.0156 225.2031 44.2031 225.2031 Q42.5938 225.2031 41.5156 223.2969 Q40.6094 221.7031 40.6094 219.4375 ZM42.2344 219.6406 Q42.2344 221.9688 42.8125 223.4375 Q43.2812 224.6719 44.2188 224.6719 Q44.6719 224.6719 45.1562 224.2734 Q45.6406 223.875 45.8906 222.9219 Q46.2656 221.5 46.2656 218.9062 Q46.2656 216.9688 45.875 215.6875 Q45.5625 214.7344 45.0938 214.3281 Q44.75 214.0625 44.2812 214.0625 Q43.7031 214.0625 43.2656 214.5625 Q42.6719 215.25 42.4531 216.7266 Q42.2344 218.2031 42.2344 219.6406 ZM49.1094 219.4375 Q49.1094 217.5156 49.6953 216.125 Q50.2812 214.7344 51.2344 214.0469 Q51.9844 213.5156 52.7812 213.5156 Q54.0781 213.5156 55.1094 214.8281 Q56.3906 216.4688 56.3906 219.2656 Q56.3906 221.2188 55.8281 222.5938 Q55.2656 223.9688 54.3906 224.5859 Q53.5156 225.2031 52.7031 225.2031 Q51.0938 225.2031 50.0156 223.2969 Q49.1094 221.7031 49.1094 219.4375 ZM50.7344 219.6406 Q50.7344 221.9688 51.3125 223.4375 Q51.7812 224.6719 52.7188 224.6719 Q53.1719 224.6719 53.6562 224.2734 Q54.1406 223.875 54.3906 222.9219 Q54.7656 221.5 54.7656 218.9062 Q54.7656 216.9688 54.375 215.6875 Q54.0625 214.7344 53.5938 214.3281 Q53.25 214.0625 52.7812 214.0625 Q52.2031 214.0625 51.7656 214.5625 Q51.1719 215.25 50.9531 216.7266 Q50.7344 218.2031 50.7344 219.6406 ZM57.6094 219.4375 Q57.6094 217.5156 58.1953 216.125 Q58.7812 214.7344 59.7344 214.0469 Q60.4844 213.5156 61.2812 213.5156 Q62.5781 213.5156 63.6094 214.8281 Q64.8906 216.4688 64.8906 219.2656 Q64.8906 221.2188 64.3281 222.5938 Q63.7656 223.9688 62.8906 224.5859 Q62.0156 225.2031 61.2031 225.2031 Q59.5938 225.2031 58.5156 223.2969 Q57.6094 221.7031 57.6094 219.4375 ZM59.2344 219.6406 Q59.2344 221.9688 59.8125 223.4375 Q60.2812 224.6719 61.2188 224.6719 Q61.6719 224.6719 62.1562 224.2734 Q62.6406 223.875 62.8906 222.9219 Q63.2656 221.5 63.2656 218.9062 Q63.2656 216.9688 62.875 215.6875 Q62.5625 214.7344 62.0938 214.3281 Q61.75 214.0625 61.2812 214.0625 Q60.7031 214.0625 60.2656 214.5625 Q59.6719 215.25 59.4531 216.7266 Q59.2344 218.2031 59.2344 219.6406 Z"
                  style="clip-path:url(#clipPath58); stroke:none;"
                  transform="translate(-6,-25)"/>
        </g>
        <g transform="translate(6,25)"
           style="font-size:13px; text-rendering:optimizeLegibility; color-rendering:optimizeQuality; image-rendering:optimizeQuality; font-family:'Times New Roman'; color-interpolation:linearRGB;">
            <path d="M72 120.0132 L64.56 120.0132"
                  style="fill:none; clip-path:url(#clipPath1);"/>
            <path d="M30.9062 146.8438 L30.9062 148.0312 L29.4062 148.0312 L29.4062 151 L28.0312 151 L28.0312 148.0312 L23.2656 148.0312 L23.2656 146.9688 L28.4844 139.5156 L29.4062 139.5156 L29.4062 146.8438 L30.9062 146.8438 ZM28.0312 146.8438 L28.0312 141.2656 L24.0781 146.8438 L28.0312 146.8438 ZM32.1094 145.4375 Q32.1094 143.5156 32.6953 142.125 Q33.2812 140.7344 34.2344 140.0469 Q34.9844 139.5156 35.7812 139.5156 Q37.0781 139.5156 38.1094 140.8281 Q39.3906 142.4688 39.3906 145.2656 Q39.3906 147.2188 38.8281 148.5938 Q38.2656 149.9688 37.3906 150.5859 Q36.5156 151.2031 35.7031 151.2031 Q34.0938 151.2031 33.0156 149.2969 Q32.1094 147.7031 32.1094 145.4375 ZM33.7344 145.6406 Q33.7344 147.9688 34.3125 149.4375 Q34.7812 150.6719 35.7188 150.6719 Q36.1719 150.6719 36.6562 150.2734 Q37.1406 149.875 37.3906 148.9219 Q37.7656 147.5 37.7656 144.9062 Q37.7656 142.9688 37.375 141.6875 Q37.0625 140.7344 36.5938 140.3281 Q36.25 140.0625 35.7812 140.0625 Q35.2031 140.0625 34.7656 140.5625 Q34.1719 141.25 33.9531 142.7266 Q33.7344 144.2031 33.7344 145.6406 ZM40.6094 145.4375 Q40.6094 143.5156 41.1953 142.125 Q41.7812 140.7344 42.7344 140.0469 Q43.4844 139.5156 44.2812 139.5156 Q45.5781 139.5156 46.6094 140.8281 Q47.8906 142.4688 47.8906 145.2656 Q47.8906 147.2188 47.3281 148.5938 Q46.7656 149.9688 45.8906 150.5859 Q45.0156 151.2031 44.2031 151.2031 Q42.5938 151.2031 41.5156 149.2969 Q40.6094 147.7031 40.6094 145.4375 ZM42.2344 145.6406 Q42.2344 147.9688 42.8125 149.4375 Q43.2812 150.6719 44.2188 150.6719 Q44.6719 150.6719 45.1562 150.2734 Q45.6406 149.875 45.8906 148.9219 Q46.2656 147.5 46.2656 144.9062 Q46.2656 142.9688 45.875 141.6875 Q45.5625 140.7344 45.0938 140.3281 Q44.75 140.0625 44.2812 140.0625 Q43.7031 140.0625 43.2656 140.5625 Q42.6719 141.25 42.4531 142.7266 Q42.2344 144.2031 42.2344 145.6406 ZM49.1094 145.4375 Q49.1094 143.5156 49.6953 142.125 Q50.2812 140.7344 51.2344 140.0469 Q51.9844 139.5156 52.7812 139.5156 Q54.0781 139.5156 55.1094 140.8281 Q56.3906 142.4688 56.3906 145.2656 Q56.3906 147.2188 55.8281 148.5938 Q55.2656 149.9688 54.3906 150.5859 Q53.5156 151.2031 52.7031 151.2031 Q51.0938 151.2031 50.0156 149.2969 Q49.1094 147.7031 49.1094 145.4375 ZM50.7344 145.6406 Q50.7344 147.9688 51.3125 149.4375 Q51.7812 150.6719 52.7188 150.6719 Q53.1719 150.6719 53.6562 150.2734 Q54.1406 149.875 54.3906 148.9219 Q54.7656 147.5 54.7656 144.9062 Q54.7656 142.9688 54.375 141.6875 Q54.0625 140.7344 53.5938 140.3281 Q53.25 140.0625 52.7812 140.0625 Q52.2031 140.0625 51.7656 140.5625 Q51.1719 141.25 50.9531 142.7266 Q50.7344 144.2031 50.7344 145.6406 ZM57.6094 145.4375 Q57.6094 143.5156 58.1953 142.125 Q58.7812 140.7344 59.7344 140.0469 Q60.4844 139.5156 61.2812 139.5156 Q62.5781 139.5156 63.6094 140.8281 Q64.8906 142.4688 64.8906 145.2656 Q64.8906 147.2188 64.3281 148.5938 Q63.7656 149.9688 62.8906 150.5859 Q62.0156 151.2031 61.2031 151.2031 Q59.5938 151.2031 58.5156 149.2969 Q57.6094 147.7031 57.6094 145.4375 ZM59.2344 145.6406 Q59.2344 147.9688 59.8125 149.4375 Q60.2812 150.6719 61.2188 150.6719 Q61.6719 150.6719 62.1562 150.2734 Q62.6406 149.875 62.8906 148.9219 Q63.2656 147.5 63.2656 144.9062 Q63.2656 142.9688 62.875 141.6875 Q62.5625 140.7344 62.0938 140.3281 Q61.75 140.0625 61.2812 140.0625 Q60.7031 140.0625 60.2656 140.5625 Q59.6719 141.25 59.4531 142.7266 Q59.2344 144.2031 59.2344 145.6406 Z"
                  style="clip-path:url(#clipPath58); stroke:none;"
                  transform="translate(-6,-25)"/>
        </g>
        <g transform="translate(6,25)"
           style="font-size:13px; text-rendering:optimizeLegibility; color-rendering:optimizeQuality; image-rendering:optimizeQuality; font-family:'Times New Roman'; color-interpolation:linearRGB;">
            <path d="M72 45.2665 L64.56 45.2665"
                  style="fill:none; clip-path:url(#clipPath1);"/>
            <path d="M30.375 64.75 L29.7344 66.1562 L26.3438 66.1562 L25.6094 67.6719 Q27.8125 67.9844 29.0938 69.2969 Q30.2031 70.4375 30.2031 71.9531 Q30.2031 72.8438 29.8359 73.6016 Q29.4688 74.3594 28.9219 74.8906 Q28.375 75.4219 27.7031 75.75 Q26.75 76.2031 25.75 76.2031 Q24.7344 76.2031 24.2734 75.8594 Q23.8125 75.5156 23.8125 75.0938 Q23.8125 74.8594 24.0078 74.6797 Q24.2031 74.5 24.4844 74.5 Q24.7031 74.5 24.8672 74.5703 Q25.0312 74.6406 25.4219 74.9062 Q26.0312 75.3438 26.6719 75.3438 Q27.6562 75.3438 28.3906 74.6094 Q29.125 73.875 29.125 72.8281 Q29.125 71.7969 28.4688 70.9141 Q27.8125 70.0312 26.6562 69.5469 Q25.75 69.1719 24.1875 69.125 L26.3438 64.75 L30.375 64.75 ZM32.1094 70.4375 Q32.1094 68.5156 32.6953 67.125 Q33.2812 65.7344 34.2344 65.0469 Q34.9844 64.5156 35.7812 64.5156 Q37.0781 64.5156 38.1094 65.8281 Q39.3906 67.4688 39.3906 70.2656 Q39.3906 72.2188 38.8281 73.5938 Q38.2656 74.9688 37.3906 75.5859 Q36.5156 76.2031 35.7031 76.2031 Q34.0938 76.2031 33.0156 74.2969 Q32.1094 72.7031 32.1094 70.4375 ZM33.7344 70.6406 Q33.7344 72.9688 34.3125 74.4375 Q34.7812 75.6719 35.7188 75.6719 Q36.1719 75.6719 36.6562 75.2734 Q37.1406 74.875 37.3906 73.9219 Q37.7656 72.5 37.7656 69.9062 Q37.7656 67.9688 37.375 66.6875 Q37.0625 65.7344 36.5938 65.3281 Q36.25 65.0625 35.7812 65.0625 Q35.2031 65.0625 34.7656 65.5625 Q34.1719 66.25 33.9531 67.7266 Q33.7344 69.2031 33.7344 70.6406 ZM40.6094 70.4375 Q40.6094 68.5156 41.1953 67.125 Q41.7812 65.7344 42.7344 65.0469 Q43.4844 64.5156 44.2812 64.5156 Q45.5781 64.5156 46.6094 65.8281 Q47.8906 67.4688 47.8906 70.2656 Q47.8906 72.2188 47.3281 73.5938 Q46.7656 74.9688 45.8906 75.5859 Q45.0156 76.2031 44.2031 76.2031 Q42.5938 76.2031 41.5156 74.2969 Q40.6094 72.7031 40.6094 70.4375 ZM42.2344 70.6406 Q42.2344 72.9688 42.8125 74.4375 Q43.2812 75.6719 44.2188 75.6719 Q44.6719 75.6719 45.1562 75.2734 Q45.6406 74.875 45.8906 73.9219 Q46.2656 72.5 46.2656 69.9062 Q46.2656 67.9688 45.875 66.6875 Q45.5625 65.7344 45.0938 65.3281 Q44.75 65.0625 44.2812 65.0625 Q43.7031 65.0625 43.2656 65.5625 Q42.6719 66.25 42.4531 67.7266 Q42.2344 69.2031 42.2344 70.6406 ZM49.1094 70.4375 Q49.1094 68.5156 49.6953 67.125 Q50.2812 65.7344 51.2344 65.0469 Q51.9844 64.5156 52.7812 64.5156 Q54.0781 64.5156 55.1094 65.8281 Q56.3906 67.4688 56.3906 70.2656 Q56.3906 72.2188 55.8281 73.5938 Q55.2656 74.9688 54.3906 75.5859 Q53.5156 76.2031 52.7031 76.2031 Q51.0938 76.2031 50.0156 74.2969 Q49.1094 72.7031 49.1094 70.4375 ZM50.7344 70.6406 Q50.7344 72.9688 51.3125 74.4375 Q51.7812 75.6719 52.7188 75.6719 Q53.1719 75.6719 53.6562 75.2734 Q54.1406 74.875 54.3906 73.9219 Q54.7656 72.5 54.7656 69.9062 Q54.7656 67.9688 54.375 66.6875 Q54.0625 65.7344 53.5938 65.3281 Q53.25 65.0625 52.7812 65.0625 Q52.2031 65.0625 51.7656 65.5625 Q51.1719 66.25 50.9531 67.7266 Q50.7344 69.2031 50.7344 70.6406 ZM57.6094 70.4375 Q57.6094 68.5156 58.1953 67.125 Q58.7812 65.7344 59.7344 65.0469 Q60.4844 64.5156 61.2812 64.5156 Q62.5781 64.5156 63.6094 65.8281 Q64.8906 67.4688 64.8906 70.2656 Q64.8906 72.2188 64.3281 73.5938 Q63.7656 74.9688 62.8906 75.5859 Q62.0156 76.2031 61.2031 76.2031 Q59.5938 76.2031 58.5156 74.2969 Q57.6094 72.7031 57.6094 70.4375 ZM59.2344 70.6406 Q59.2344 72.9688 59.8125 74.4375 Q60.2812 75.6719 61.2188 75.6719 Q61.6719 75.6719 62.1562 75.2734 Q62.6406 74.875 62.8906 73.9219 Q63.2656 72.5 63.2656 69.9062 Q63.2656 67.9688 62.875 66.6875 Q62.5625 65.7344 62.0938 65.3281 Q61.75 65.0625 61.2812 65.0625 Q60.7031 65.0625 60.2656 65.5625 Q59.6719 66.25 59.4531 67.7266 Q59.2344 69.2031 59.2344 70.6406 Z"
                  style="clip-path:url(#clipPath58); stroke:none;"
                  transform="translate(-6,-25)"/>
        </g>
        <g transform="translate(6,25)"
           style="font-size:13px; text-rendering:optimizeLegibility; color-rendering:optimizeQuality; image-rendering:optimizeQuality; font-family:'Times New Roman'; color-interpolation:linearRGB;">
            <path d="M72 381.6265 L68.28 381.6265"
                  style="fill:none; clip-path:url(#clipPath1);"/>
        </g>
        <g transform="translate(6,25)"
           style="font-size:13px; text-rendering:optimizeLegibility; color-rendering:optimizeQuality; image-rendering:optimizeQuality; font-family:'Times New Roman'; color-interpolation:linearRGB;">
            <path d="M72 306.8799 L68.28 306.8799"
                  style="fill:none; clip-path:url(#clipPath1);"/>
        </g>
        <g transform="translate(6,25)"
           style="font-size:13px; text-rendering:optimizeLegibility; color-rendering:optimizeQuality; image-rendering:optimizeQuality; font-family:'Times New Roman'; color-interpolation:linearRGB;">
            <path d="M72 232.1332 L68.28 232.1332"
                  style="fill:none; clip-path:url(#clipPath1);"/>
        </g>
        <g transform="translate(6,25)"
           style="font-size:13px; text-rendering:optimizeLegibility; color-rendering:optimizeQuality; image-rendering:optimizeQuality; font-family:'Times New Roman'; color-interpolation:linearRGB;">
            <path d="M72 157.3865 L68.28 157.3865"
                  style="fill:none; clip-path:url(#clipPath1);"/>
        </g>
        <g transform="translate(6,25)"
           style="font-size:13px; text-rendering:optimizeLegibility; color-rendering:optimizeQuality; image-rendering:optimizeQuality; font-family:'Times New Roman'; color-interpolation:linearRGB;">
            <path d="M72 82.6399 L68.28 82.6399"
                  style="fill:none; clip-path:url(#clipPath1);"/>
        </g>
        <g transform="translate(6,25)"
           style="font-size:13px; text-rendering:optimizeLegibility; color-rendering:optimizeQuality; image-rendering:optimizeQuality; font-family:'Times New Roman'; color-interpolation:linearRGB;">
            <path d="M72 7.8932 L68.28 7.8932"
                  style="fill:none; clip-path:url(#clipPath1);"/>
        </g>
        <g transform="translate(6,5)"
           style="stroke-linecap:butt; font-size:13px; text-rendering:optimizeLegibility; image-rendering:optimizeQuality; color-rendering:optimizeQuality; font-family:'Times New Roman'; stroke-linejoin:round; color-interpolation:linearRGB; stroke-width:1.5;">
            <path d="M413.7969 4.4844 L413.7969 8.375 L413.4844 8.375 Q413.3438 7.2656 412.9531 6.6016 Q412.5625 5.9375 411.8516 5.5469 Q411.1406 5.1562 410.375 5.1562 Q409.5156 5.1562 408.9453 5.6797 Q408.375 6.2031 408.375 6.875 Q408.375 7.3906 408.7344 7.8125 Q409.25 8.4375 411.1875 9.4688 Q412.7656 10.3281 413.3438 10.7812 Q413.9219 11.2344 414.2344 11.8438 Q414.5469 12.4531 414.5469 13.125 Q414.5469 14.4062 413.5547 15.3281 Q412.5625 16.25 411 16.25 Q410.5 16.25 410.0781 16.1875 Q409.8125 16.1406 409.0078 15.8828 Q408.2031 15.625 407.9844 15.625 Q407.7812 15.625 407.6562 15.7422 Q407.5312 15.8594 407.4844 16.25 L407.1719 16.25 L407.1719 12.3906 L407.4844 12.3906 Q407.6875 13.6094 408.0547 14.2109 Q408.4219 14.8125 409.1719 15.2109 Q409.9219 15.6094 410.8281 15.6094 Q411.8594 15.6094 412.4609 15.0625 Q413.0625 14.5156 413.0625 13.7656 Q413.0625 13.3594 412.8359 12.9297 Q412.6094 12.5 412.125 12.1406 Q411.7969 11.8906 410.3516 11.0781 Q408.9062 10.2656 408.2969 9.7891 Q407.6875 9.3125 407.375 8.7266 Q407.0625 8.1406 407.0625 7.4531 Q407.0625 6.2344 407.9922 5.3594 Q408.9219 4.4844 410.3594 4.4844 Q411.25 4.4844 412.2656 4.9219 Q412.7188 5.1406 412.9219 5.1406 Q413.125 5.1406 413.2656 5.0078 Q413.4062 4.875 413.4844 4.4844 L413.7969 4.4844 ZM422.6577 8.3906 L422.6577 13 Q422.6577 14.3281 422.7202 14.6172 Q422.7827 14.9062 422.9155 15.0234 Q423.0483 15.1406 423.2358 15.1406 Q423.4858 15.1406 423.814 15 L423.9233 15.2969 L421.6577 16.2344 L421.2827 16.2344 L421.2827 14.625 Q420.2983 15.6875 419.7827 15.9609 Q419.2671 16.2344 418.7046 16.2344 Q418.064 16.2344 417.5952 15.8672 Q417.1265 15.5 416.939 14.9141 Q416.7515 14.3281 416.7515 13.2656 L416.7515 9.875 Q416.7515 9.3281 416.6421 9.125 Q416.5327 8.9219 416.2983 8.8047 Q416.064 8.6875 415.4702 8.7031 L415.4702 8.3906 L418.1421 8.3906 L418.1421 13.4844 Q418.1421 14.5469 418.5093 14.8828 Q418.8765 15.2188 419.3921 15.2188 Q419.7515 15.2188 420.2046 14.9922 Q420.6577 14.7656 421.2827 14.125 L421.2827 9.8281 Q421.2827 9.1719 421.0483 8.9453 Q420.814 8.7188 420.064 8.7031 L420.064 8.3906 L422.6577 8.3906 ZM426.7515 9.7969 Q427.5796 8.9531 427.7202 8.8438 Q428.0952 8.5156 428.5249 8.3438 Q428.9546 8.1719 429.3765 8.1719 Q430.0952 8.1719 430.6108 8.5859 Q431.1265 9 431.2983 9.7969 Q432.1577 8.7969 432.7437 8.4844 Q433.3296 8.1719 433.9546 8.1719 Q434.564 8.1719 435.0327 8.4844 Q435.5015 8.7969 435.7827 9.5 Q435.9546 9.9844 435.9546 11.0156 L435.9546 14.2812 Q435.9546 15 436.064 15.2656 Q436.1421 15.4375 436.3687 15.5703 Q436.5952 15.7031 437.1108 15.7031 L437.1108 16 L433.3452 16 L433.3452 15.7031 L433.5015 15.7031 Q434.0015 15.7031 434.2671 15.5156 Q434.4702 15.375 434.5483 15.0938 Q434.5796 14.9531 434.5796 14.2812 L434.5796 11.0156 Q434.5796 10.0781 434.3608 9.7031 Q434.0327 9.1719 433.314 9.1719 Q432.8765 9.1719 432.4312 9.3906 Q431.9858 9.6094 431.3608 10.2031 L431.3452 10.2969 L431.3608 10.6562 L431.3608 14.2812 Q431.3608 15.0625 431.4468 15.25 Q431.5327 15.4375 431.7749 15.5703 Q432.0171 15.7031 432.5952 15.7031 L432.5952 16 L428.7515 16 L428.7515 15.7031 Q429.3765 15.7031 429.6187 15.5547 Q429.8608 15.4062 429.9546 15.1094 Q429.9858 14.9688 429.9858 14.2812 L429.9858 11.0156 Q429.9858 10.0781 429.7202 9.6719 Q429.3452 9.1406 428.689 9.1406 Q428.2515 9.1406 427.814 9.3906 Q427.1108 9.75 426.7515 10.2031 L426.7515 14.2812 Q426.7515 15.0312 426.853 15.2578 Q426.9546 15.4844 427.1577 15.5938 Q427.3608 15.7031 427.9858 15.7031 L427.9858 16 L424.2202 16 L424.2202 15.7031 Q424.7358 15.7031 424.9468 15.5938 Q425.1577 15.4844 425.2671 15.2344 Q425.3765 14.9844 425.3765 14.2812 L425.3765 11.375 Q425.3765 10.125 425.2983 9.75 Q425.2358 9.4844 425.1108 9.3828 Q424.9858 9.2812 424.7827 9.2812 Q424.5483 9.2812 424.2202 9.4062 L424.0952 9.1094 L426.3921 8.1719 L426.7515 8.1719 L426.7515 9.7969 ZM444.1777 8.1719 L444.1777 9.875 Q445.1309 8.1719 446.1465 8.1719 Q446.5996 8.1719 446.8965 8.4531 Q447.1934 8.7344 447.1934 9.0938 Q447.1934 9.4219 446.9824 9.6406 Q446.7715 9.8594 446.459 9.8594 Q446.1777 9.8594 445.8184 9.5781 Q445.459 9.2969 445.2871 9.2969 Q445.1309 9.2969 444.959 9.4531 Q444.584 9.7969 444.1777 10.5781 L444.1777 14.2188 Q444.1777 14.8594 444.334 15.1719 Q444.4434 15.4062 444.7168 15.5547 Q444.9902 15.7031 445.5059 15.7031 L445.5059 16 L441.6152 16 L441.6152 15.7031 Q442.1934 15.7031 442.4746 15.5156 Q442.6934 15.3906 442.7715 15.0938 Q442.8184 14.9531 442.8184 14.2969 L442.8184 11.3438 Q442.8184 10.0156 442.7637 9.7656 Q442.709 9.5156 442.5605 9.3984 Q442.4121 9.2812 442.1934 9.2812 Q441.9434 9.2812 441.6152 9.4062 L441.5371 9.1094 L443.834 8.1719 L444.1777 8.1719 ZM448.9014 11.2656 Q448.8857 12.9531 449.7139 13.9219 Q450.5576 14.875 451.667 14.875 Q452.417 14.875 452.9717 14.4688 Q453.5264 14.0625 453.9014 13.0625 L454.1514 13.2344 Q453.9795 14.3594 453.1436 15.2969 Q452.3076 16.2344 451.042 16.2344 Q449.667 16.2344 448.6904 15.1641 Q447.7139 14.0938 447.7139 12.2969 Q447.7139 10.3438 448.7139 9.25 Q449.7139 8.1562 451.2295 8.1562 Q452.5107 8.1562 453.3311 9 Q454.1514 9.8438 454.1514 11.2656 L448.9014 11.2656 ZM448.9014 10.7812 L452.417 10.7812 Q452.3701 10.0469 452.2451 9.75 Q452.042 9.2812 451.6279 9.0156 Q451.2139 8.75 450.7607 8.75 Q450.0732 8.75 449.5342 9.2891 Q448.9951 9.8281 448.9014 10.7812 ZM454.6187 9.1562 L456.9624 8.2031 L457.2749 8.2031 L457.2749 9.9844 Q457.8687 8.9844 458.4624 8.5781 Q459.0562 8.1719 459.7124 8.1719 Q460.853 8.1719 461.6187 9.0625 Q462.5562 10.1719 462.5562 11.9219 Q462.5562 13.8906 461.4312 15.1719 Q460.4937 16.2344 459.0874 16.2344 Q458.4624 16.2344 458.0249 16.0625 Q457.6968 15.9375 457.2749 15.5625 L457.2749 17.875 Q457.2749 18.6562 457.3687 18.8672 Q457.4624 19.0781 457.6968 19.2031 Q457.9312 19.3281 458.5562 19.3281 L458.5562 19.6406 L454.5718 19.6406 L454.5718 19.3281 L454.7905 19.3281 Q455.2437 19.3438 455.5718 19.1562 Q455.728 19.0625 455.814 18.8594 Q455.8999 18.6562 455.8999 17.8281 L455.8999 10.6406 Q455.8999 9.9062 455.8296 9.7031 Q455.7593 9.5 455.6187 9.3984 Q455.478 9.2969 455.228 9.2969 Q455.0249 9.2969 454.7124 9.4219 L454.6187 9.1562 ZM457.2749 10.4688 L457.2749 13.3125 Q457.2749 14.2344 457.353 14.5156 Q457.4624 15 457.9155 15.3672 Q458.3687 15.7344 459.0562 15.7344 Q459.8843 15.7344 460.3999 15.0938 Q461.0718 14.2344 461.0718 12.7031 Q461.0718 10.9688 460.3062 10.0156 Q459.7749 9.375 459.0562 9.375 Q458.6499 9.375 458.2593 9.5781 Q457.9624 9.7188 457.2749 10.4688 ZM465.8843 8.1719 L465.8843 9.875 Q466.8374 8.1719 467.853 8.1719 Q468.3062 8.1719 468.603 8.4531 Q468.8999 8.7344 468.8999 9.0938 Q468.8999 9.4219 468.689 9.6406 Q468.478 9.8594 468.1655 9.8594 Q467.8843 9.8594 467.5249 9.5781 Q467.1655 9.2969 466.9937 9.2969 Q466.8374 9.2969 466.6655 9.4531 Q466.2905 9.7969 465.8843 10.5781 L465.8843 14.2188 Q465.8843 14.8594 466.0405 15.1719 Q466.1499 15.4062 466.4233 15.5547 Q466.6968 15.7031 467.2124 15.7031 L467.2124 16 L463.3218 16 L463.3218 15.7031 Q463.8999 15.7031 464.1812 15.5156 Q464.3999 15.3906 464.478 15.0938 Q464.5249 14.9531 464.5249 14.2969 L464.5249 11.3438 Q464.5249 10.0156 464.4702 9.7656 Q464.4155 9.5156 464.2671 9.3984 Q464.1187 9.2812 463.8999 9.2812 Q463.6499 9.2812 463.3218 9.4062 L463.2437 9.1094 L465.5405 8.1719 L465.8843 8.1719 ZM470.6079 11.2656 Q470.5923 12.9531 471.4204 13.9219 Q472.2642 14.875 473.3735 14.875 Q474.1235 14.875 474.6782 14.4688 Q475.2329 14.0625 475.6079 13.0625 L475.8579 13.2344 Q475.686 14.3594 474.8501 15.2969 Q474.0142 16.2344 472.7485 16.2344 Q471.3735 16.2344 470.397 15.1641 Q469.4204 14.0938 469.4204 12.2969 Q469.4204 10.3438 470.4204 9.25 Q471.4204 8.1562 472.936 8.1562 Q474.2173 8.1562 475.0376 9 Q475.8579 9.8438 475.8579 11.2656 L470.6079 11.2656 ZM470.6079 10.7812 L474.1235 10.7812 Q474.0767 10.0469 473.9517 9.75 Q473.7485 9.2812 473.3345 9.0156 Q472.9204 8.75 472.4673 8.75 Q471.7798 8.75 471.2407 9.2891 Q470.7017 9.8281 470.6079 10.7812 ZM481.7939 8.1719 L481.7939 10.7656 L481.5127 10.7656 Q481.2002 9.5469 480.708 9.1016 Q480.2158 8.6562 479.4502 8.6562 Q478.8721 8.6562 478.5127 8.9688 Q478.1533 9.2812 478.1533 9.6562 Q478.1533 10.1094 478.4189 10.4531 Q478.6689 10.7812 479.4658 11.1719 L480.6689 11.7656 Q482.3564 12.5781 482.3564 13.9219 Q482.3564 14.9688 481.5752 15.6016 Q480.7939 16.2344 479.8252 16.2344 Q479.1221 16.2344 478.2314 15.9844 Q477.9502 15.9062 477.7783 15.9062 Q477.5908 15.9062 477.4814 16.1094 L477.2002 16.1094 L477.2002 13.4062 L477.4814 13.4062 Q477.7158 14.5625 478.3721 15.1562 Q479.0283 15.75 479.8408 15.75 Q480.4033 15.75 480.7705 15.4062 Q481.1377 15.0625 481.1377 14.5938 Q481.1377 14.0312 480.7314 13.6406 Q480.3252 13.25 479.1221 12.6484 Q477.9189 12.0469 477.5439 11.5625 Q477.1689 11.0938 477.1689 10.375 Q477.1689 9.4375 477.8096 8.8047 Q478.4502 8.1719 479.4814 8.1719 Q479.9346 8.1719 480.5596 8.3594 Q480.9971 8.4844 481.1377 8.4844 Q481.2627 8.4844 481.3408 8.4297 Q481.4189 8.375 481.5127 8.1719 L481.7939 8.1719 ZM484.769 11.2656 Q484.7534 12.9531 485.5815 13.9219 Q486.4253 14.875 487.5347 14.875 Q488.2847 14.875 488.8394 14.4688 Q489.394 14.0625 489.769 13.0625 L490.019 13.2344 Q489.8472 14.3594 489.0112 15.2969 Q488.1753 16.2344 486.9097 16.2344 Q485.5347 16.2344 484.5581 15.1641 Q483.5815 14.0938 483.5815 12.2969 Q483.5815 10.3438 484.5815 9.25 Q485.5815 8.1562 487.0972 8.1562 Q488.3784 8.1562 489.1987 9 Q490.019 9.8438 490.019 11.2656 L484.769 11.2656 ZM484.769 10.7812 L488.2847 10.7812 Q488.2378 10.0469 488.1128 9.75 Q487.9097 9.2812 487.4956 9.0156 Q487.0815 8.75 486.6284 8.75 Q485.9409 8.75 485.4019 9.2891 Q484.8628 9.8281 484.769 10.7812 ZM493.252 9.7812 Q494.5801 8.1719 495.7988 8.1719 Q496.4238 8.1719 496.8691 8.4844 Q497.3145 8.7969 497.5801 9.5156 Q497.7676 10 497.7676 11.0312 L497.7676 14.2812 Q497.7676 15 497.877 15.2656 Q497.9707 15.4688 498.1738 15.5859 Q498.377 15.7031 498.9238 15.7031 L498.9238 16 L495.1738 16 L495.1738 15.7031 L495.3301 15.7031 Q495.8613 15.7031 496.0723 15.5391 Q496.2832 15.375 496.3613 15.0625 Q496.3926 14.9375 496.3926 14.2812 L496.3926 11.1719 Q496.3926 10.125 496.127 9.6562 Q495.8613 9.1875 495.2207 9.1875 Q494.2363 9.1875 493.252 10.2656 L493.252 14.2812 Q493.252 15.0469 493.3457 15.2344 Q493.4551 15.4844 493.6582 15.5938 Q493.8613 15.7031 494.4863 15.7031 L494.4863 16 L490.7207 16 L490.7207 15.7031 L490.8926 15.7031 Q491.4707 15.7031 491.6738 15.4062 Q491.877 15.1094 491.877 14.2812 L491.877 11.4531 Q491.877 10.0938 491.8145 9.7891 Q491.752 9.4844 491.627 9.3828 Q491.502 9.2812 491.2832 9.2812 Q491.0488 9.2812 490.7207 9.4062 L490.5957 9.1094 L492.8926 8.1719 L493.252 8.1719 L493.252 9.7812 ZM501.7363 5.8906 L501.7363 8.3906 L503.5176 8.3906 L503.5176 8.9844 L501.7363 8.9844 L501.7363 13.9062 Q501.7363 14.6406 501.9473 14.8984 Q502.1582 15.1562 502.502 15.1562 Q502.7676 15.1562 503.0254 14.9922 Q503.2832 14.8281 503.4238 14.4844 L503.752 14.4844 Q503.4551 15.2969 502.9238 15.7109 Q502.3926 16.125 501.8301 16.125 Q501.4551 16.125 501.0879 15.9141 Q500.7207 15.7031 500.5488 15.3047 Q500.377 14.9062 500.377 14.0938 L500.377 8.9844 L499.1738 8.9844 L499.1738 8.7031 Q499.627 8.5156 500.1035 8.0859 Q500.5801 7.6562 500.9551 7.0469 Q501.1426 6.7344 501.4863 5.8906 L501.7363 5.8906 ZM508.5688 14.9062 Q507.397 15.8125 507.1001 15.9531 Q506.647 16.1562 506.147 16.1562 Q505.3501 16.1562 504.8423 15.6172 Q504.3345 15.0781 504.3345 14.2031 Q504.3345 13.6406 504.5845 13.2344 Q504.9282 12.6719 505.7642 12.1719 Q506.6001 11.6719 508.5688 10.9688 L508.5688 10.6562 Q508.5688 9.5312 508.2095 9.1016 Q507.8501 8.6719 507.147 8.6719 Q506.6313 8.6719 506.3188 8.9531 Q506.0063 9.25 506.0063 9.6094 L506.022 10.0938 Q506.022 10.4688 505.8267 10.6797 Q505.6313 10.8906 505.3188 10.8906 Q505.0063 10.8906 504.811 10.6719 Q504.6157 10.4531 504.6157 10.0781 Q504.6157 9.375 505.3501 8.7734 Q506.0845 8.1719 507.397 8.1719 Q508.4126 8.1719 509.0688 8.5156 Q509.5532 8.7656 509.7876 9.3125 Q509.9282 9.6719 509.9282 10.7812 L509.9282 13.3594 Q509.9282 14.4531 509.9751 14.6953 Q510.022 14.9375 510.1157 15.0234 Q510.2095 15.1094 510.3345 15.1094 Q510.4595 15.1094 510.5688 15.0469 Q510.7407 14.9375 511.2407 14.4375 L511.2407 14.9062 Q510.3032 16.1562 509.4595 16.1562 Q509.0532 16.1562 508.811 15.8672 Q508.5688 15.5781 508.5688 14.9062 ZM508.5688 14.3594 L508.5688 11.4688 Q507.3188 11.9688 506.9438 12.1719 Q506.2876 12.5312 506.0063 12.9297 Q505.7251 13.3281 505.7251 13.8125 Q505.7251 14.4062 506.0845 14.7969 Q506.4438 15.1875 506.897 15.1875 Q507.5376 15.1875 508.5688 14.3594 ZM514.0049 5.8906 L514.0049 8.3906 L515.7861 8.3906 L515.7861 8.9844 L514.0049 8.9844 L514.0049 13.9062 Q514.0049 14.6406 514.2158 14.8984 Q514.4268 15.1562 514.7705 15.1562 Q515.0361 15.1562 515.2939 14.9922 Q515.5518 14.8281 515.6924 14.4844 L516.0205 14.4844 Q515.7236 15.2969 515.1924 15.7109 Q514.6611 16.125 514.0986 16.125 Q513.7236 16.125 513.3564 15.9141 Q512.9893 15.7031 512.8174 15.3047 Q512.6455 14.9062 512.6455 14.0938 L512.6455 8.9844 L511.4424 8.9844 L511.4424 8.7031 Q511.8955 8.5156 512.3721 8.0859 Q512.8486 7.6562 513.2236 7.0469 Q513.4111 6.7344 513.7549 5.8906 L514.0049 5.8906 ZM518.4624 4.2031 Q518.8062 4.2031 519.0483 4.4453 Q519.2905 4.6875 519.2905 5.0312 Q519.2905 5.3906 519.0483 5.6328 Q518.8062 5.875 518.4624 5.875 Q518.103 5.875 517.8608 5.6328 Q517.6187 5.3906 517.6187 5.0312 Q517.6187 4.6875 517.8608 4.4453 Q518.103 4.2031 518.4624 4.2031 ZM519.1499 8.1719 L519.1499 14.2812 Q519.1499 15 519.2515 15.2344 Q519.353 15.4688 519.5562 15.5859 Q519.7593 15.7031 520.3062 15.7031 L520.3062 16 L516.603 16 L516.603 15.7031 Q517.1655 15.7031 517.353 15.5938 Q517.5405 15.4844 517.6577 15.2344 Q517.7749 14.9844 517.7749 14.2812 L517.7749 11.3438 Q517.7749 10.1094 517.6968 9.75 Q517.6343 9.4844 517.5093 9.3828 Q517.3843 9.2812 517.1655 9.2812 Q516.9468 9.2812 516.603 9.4062 L516.4937 9.1094 L518.7905 8.1719 L519.1499 8.1719 ZM524.9668 8.1719 Q526.7012 8.1719 527.7324 9.4844 Q528.623 10.6094 528.623 12.0625 Q528.623 13.0781 528.1387 14.125 Q527.6543 15.1719 526.7949 15.7031 Q525.9355 16.2344 524.873 16.2344 Q523.1543 16.2344 522.1387 14.8594 Q521.2949 13.7031 521.2949 12.2656 Q521.2949 11.2344 521.8105 10.1953 Q522.3262 9.1562 523.1699 8.6641 Q524.0137 8.1719 524.9668 8.1719 ZM524.7168 8.7188 Q524.2637 8.7188 523.8262 8.9766 Q523.3887 9.2344 523.1074 9.8906 Q522.8262 10.5469 522.8262 11.5781 Q522.8262 13.2344 523.4902 14.4375 Q524.1543 15.6406 525.2324 15.6406 Q526.0449 15.6406 526.5605 14.9766 Q527.0762 14.3125 527.0762 12.7031 Q527.0762 10.6719 526.2168 9.5156 Q525.623 8.7188 524.7168 8.7188 ZM531.9668 9.7812 Q533.2949 8.1719 534.5137 8.1719 Q535.1387 8.1719 535.584 8.4844 Q536.0293 8.7969 536.2949 9.5156 Q536.4824 10 536.4824 11.0312 L536.4824 14.2812 Q536.4824 15 536.5918 15.2656 Q536.6855 15.4688 536.8887 15.5859 Q537.0918 15.7031 537.6387 15.7031 L537.6387 16 L533.8887 16 L533.8887 15.7031 L534.0449 15.7031 Q534.5762 15.7031 534.7871 15.5391 Q534.998 15.375 535.0762 15.0625 Q535.1074 14.9375 535.1074 14.2812 L535.1074 11.1719 Q535.1074 10.125 534.8418 9.6562 Q534.5762 9.1875 533.9355 9.1875 Q532.9512 9.1875 531.9668 10.2656 L531.9668 14.2812 Q531.9668 15.0469 532.0605 15.2344 Q532.1699 15.4844 532.373 15.5938 Q532.5762 15.7031 533.2012 15.7031 L533.2012 16 L529.4355 16 L529.4355 15.7031 L529.6074 15.7031 Q530.1855 15.7031 530.3887 15.4062 Q530.5918 15.1094 530.5918 14.2812 L530.5918 11.4531 Q530.5918 10.0938 530.5293 9.7891 Q530.4668 9.4844 530.3418 9.3828 Q530.2168 9.2812 529.998 9.2812 Q529.7637 9.2812 529.4355 9.4062 L529.3105 9.1094 L531.6074 8.1719 L531.9668 8.1719 L531.9668 9.7812 ZM543.1699 8.1719 L543.1699 10.7656 L542.8887 10.7656 Q542.5762 9.5469 542.084 9.1016 Q541.5918 8.6562 540.8262 8.6562 Q540.248 8.6562 539.8887 8.9688 Q539.5293 9.2812 539.5293 9.6562 Q539.5293 10.1094 539.7949 10.4531 Q540.0449 10.7812 540.8418 11.1719 L542.0449 11.7656 Q543.7324 12.5781 543.7324 13.9219 Q543.7324 14.9688 542.9512 15.6016 Q542.1699 16.2344 541.2012 16.2344 Q540.498 16.2344 539.6074 15.9844 Q539.3262 15.9062 539.1543 15.9062 Q538.9668 15.9062 538.8574 16.1094 L538.5762 16.1094 L538.5762 13.4062 L538.8574 13.4062 Q539.0918 14.5625 539.748 15.1562 Q540.4043 15.75 541.2168 15.75 Q541.7793 15.75 542.1465 15.4062 Q542.5137 15.0625 542.5137 14.5938 Q542.5137 14.0312 542.1074 13.6406 Q541.7012 13.25 540.498 12.6484 Q539.2949 12.0469 538.9199 11.5625 Q538.5449 11.0938 538.5449 10.375 Q538.5449 9.4375 539.1855 8.8047 Q539.8262 8.1719 540.8574 8.1719 Q541.3105 8.1719 541.9355 8.3594 Q542.373 8.4844 542.5137 8.4844 Q542.6387 8.4844 542.7168 8.4297 Q542.7949 8.375 542.8887 8.1719 L543.1699 8.1719 ZM556.3794 4.4844 L556.3794 8.375 L556.0669 8.375 Q555.9263 7.2656 555.5356 6.6016 Q555.145 5.9375 554.4341 5.5469 Q553.7231 5.1562 552.9575 5.1562 Q552.0981 5.1562 551.5278 5.6797 Q550.9575 6.2031 550.9575 6.875 Q550.9575 7.3906 551.3169 7.8125 Q551.8325 8.4375 553.77 9.4688 Q555.3481 10.3281 555.9263 10.7812 Q556.5044 11.2344 556.8169 11.8438 Q557.1294 12.4531 557.1294 13.125 Q557.1294 14.4062 556.1372 15.3281 Q555.145 16.25 553.5825 16.25 Q553.0825 16.25 552.6606 16.1875 Q552.395 16.1406 551.5903 15.8828 Q550.7856 15.625 550.5669 15.625 Q550.3638 15.625 550.2388 15.7422 Q550.1138 15.8594 550.0669 16.25 L549.7544 16.25 L549.7544 12.3906 L550.0669 12.3906 Q550.27 13.6094 550.6372 14.2109 Q551.0044 14.8125 551.7544 15.2109 Q552.5044 15.6094 553.4106 15.6094 Q554.4419 15.6094 555.0435 15.0625 Q555.645 14.5156 555.645 13.7656 Q555.645 13.3594 555.4185 12.9297 Q555.1919 12.5 554.7075 12.1406 Q554.3794 11.8906 552.9341 11.0781 Q551.4888 10.2656 550.8794 9.7891 Q550.27 9.3125 549.9575 8.7266 Q549.645 8.1406 549.645 7.4531 Q549.645 6.2344 550.5747 5.3594 Q551.5044 4.4844 552.9419 4.4844 Q553.8325 4.4844 554.8481 4.9219 Q555.3013 5.1406 555.5044 5.1406 Q555.7075 5.1406 555.8481 5.0078 Q555.9888 4.875 556.0669 4.4844 L556.3794 4.4844 ZM563.3184 19.3281 L563.3184 19.6406 Q562.0684 19 561.2246 18.1562 Q560.0371 16.9531 559.3887 15.3203 Q558.7402 13.6875 558.7402 11.9219 Q558.7402 9.3438 560.0059 7.2266 Q561.2715 5.1094 563.3184 4.2031 L563.3184 4.5469 Q562.3027 5.1094 561.6465 6.0859 Q560.9902 7.0625 560.6621 8.5703 Q560.334 10.0781 560.334 11.7031 Q560.334 13.4844 560.6152 14.9375 Q560.834 16.0781 561.1387 16.7734 Q561.4434 17.4688 561.959 18.1094 Q562.4746 18.75 563.3184 19.3281 ZM571.3232 4.5156 L571.3232 4.8125 Q570.2295 4.9219 569.5342 5.25 Q568.8389 5.5781 568.1592 6.25 Q567.4795 6.9219 567.0342 7.75 Q566.5889 8.5781 566.292 9.7188 Q567.4951 8.8906 568.6982 8.8906 Q569.8545 8.8906 570.6982 9.8203 Q571.542 10.75 571.542 12.2188 Q571.542 13.625 570.6826 14.7812 Q569.6514 16.2031 567.9639 16.2031 Q566.8076 16.2031 566.0107 15.4375 Q564.4326 13.9531 564.4326 11.5781 Q564.4326 10.0781 565.0342 8.7109 Q565.6357 7.3438 566.7607 6.2891 Q567.8857 5.2344 568.917 4.875 Q569.9482 4.5156 570.8389 4.5156 L571.3232 4.5156 ZM566.1514 10.3281 Q566.0107 11.4375 566.0107 12.125 Q566.0107 12.9219 566.2998 13.8594 Q566.5889 14.7969 567.1826 15.3438 Q567.6045 15.7344 568.1982 15.7344 Q568.9326 15.7344 569.4951 15.0547 Q570.0576 14.375 570.0576 13.1094 Q570.0576 11.6875 569.4951 10.6484 Q568.9326 9.6094 567.9014 9.6094 Q567.5889 9.6094 567.2217 9.7422 Q566.8545 9.875 566.1514 10.3281 ZM572.5732 4.5469 L572.5732 4.2031 Q573.8389 4.8125 574.6826 5.6719 Q575.8701 6.875 576.5186 8.5078 Q577.167 10.1406 577.167 11.9062 Q577.167 14.4844 575.9014 16.6016 Q574.6357 18.7188 572.5732 19.6406 L572.5732 19.3281 Q573.6045 18.75 574.2607 17.7812 Q574.917 16.8125 575.2373 15.3047 Q575.5576 13.7969 575.5576 12.1562 Q575.5576 10.3906 575.292 8.9219 Q575.0732 7.7812 574.7686 7.0938 Q574.4639 6.4062 573.9482 5.7656 Q573.4326 5.125 572.5732 4.5469 Z"
                  style="stroke:none; clip-path:url(#clipPath60);"/>
        </g>
    </g>
</svg>
